<svg xmlns="http://www.w3.org/2000/svg" viewBox="0 0 841.89 1190.55"><defs>
    <style>
      .st0 {
        fill: #a8a8a8;
      }
    </style>
  </defs><g id="ring-1" style="transform-box: view-box; transform-origin: 427.77px 630.04px;"><path class="st0" d="M427.77,1012.28c-210.44,0-381.65-171.47-381.65-382.25S217.32,247.79,427.77,247.79s381.65,171.48,381.65,382.25-171.21,382.25-381.65,382.25ZM427.77,249.42c-209.54,0-380.02,170.74-380.02,380.61s170.48,380.61,380.02,380.61,380.02-170.74,380.02-380.61-170.48-380.61-380.02-380.61Z"/><polygon points="586.55,350.37 587.06,350.66 616.18,298.73 615.67,298.44" class="st0"/><polygon points="702.65,463.11 702.34,462.60 753.79,432.29 754.09,432.80" class="st0"/><polygon points="749.37,628.61 749.36,628.02 807.81,628.30 807.80,628.89" class="st0"/><polygon points="707.96,787.90 708.25,787.38 759.53,816.26 759.23,816.78" class="st0"/><polygon points="590.46,907.45 589.95,907.75 619.71,959.22 620.22,958.92" class="st0"/><polygon points="434.57,951.57 435.16,951.56 436.26,1011.25 435.67,1011.26" class="st0"/><polygon points="270.56,910.60 271.08,910.88 241.72,962.95 241.20,962.66" class="st0"/><polygon points="149.33,790.96 149.04,790.46 97.96,821.01 98.26,821.51" class="st0"/><polygon points="106.20,625.67 106.21,625.08 47.21,625.08 47.21,625.67" class="st0"/><polygon points="146.34,474.40 146.06,474.92 93.95,445.55 94.24,445.04" class="st0"/><polygon points="266.62,351.73 267.13,351.43 236.74,299.75 236.23,300.05" class="st0"/><polygon points="422.93,308.48 423.52,308.47 422.73,249.00 422.14,249.00" class="st0"/><g>
    <path class="st0" d="M378.78,261.37c2.12,3.06-1.24,6.36-1.5,7.97-.38,2.4,2.31,5.24,2.5,7.72.25,2.14.1,9.04-5.82,8.61-.67-.03,2.14-.68,3.1-3.03,1.13-2.77-1.19-6.91-2.12-9.65-.53-1.53-.63-3.12,1.26-5.3,2.37-2.72-2.5-2.91-4.78-1.37-.17-1.15-.29-2.9,0-3.88.65-2.17,6.17-2.81,7.36-1.08Z"/>
    <path class="st0" d="M382.44,259.11c.56,1.24,1.42.58,7.43-.24,5.5-.77,5.72,3.89,5.75,4.52.03.63.1,5.11-.93,7.94-2.16,6.04-9.63,5.82-11.42,3.02-1.11-1.71-1.34-6.14-.68-9.11l-.54.22c-1.68.81-.07-7.44.4-6.36ZM394.54,267.66c.35-5.95-7.69-3.95-11.12-2.73-.28,1.43-.54,3.08-.28,4.02,1.52,5.63,11.14,2.93,11.4-1.29Z"/>
    <path class="st0" d="M398.92,258.86c.96-.99,6.35-1.69,6.81,1.46.25,1.74-.96,5.26-1.93,7.7l-.66.04c.61-1.83.72-3.22.5-4.14-.45-1.86-3.05-2.16-5.64-.67-.14-1.12.26-3.73.91-4.4Z"/>
    <path class="st0" d="M404.66,273.81c.6-2,1.54-4.55,1.54-4.55,10.2,3.44,9.91-2.4,9.55-4.21-.63-3.19-3.59-4.61-6.76-2.43.16-3.21.02-5.39,3.96-5.42,1.35-.01,4.01.23,4.18,3.44.1,1.92-.43,10.17-2.9,12.43-2.44,2.23-9.81,1.54-9.57.74Z"/>
  </g><g>
    <path class="st0" d="M205.49,339.86c-1.21-1.48-3.69-1.63-5.71.02-.43.36-2.26,1.72-4.19,4.37-.86-.79-1.93-3.03-1.97-3.86-.02-.75.72-2,3.47-4.26,3.35-2.74,6.23-2.93,8.22-.5,1.38,1.69,3.61,5.97,5.05,11.68l-.59.48c-1.15-3.49-2.9-6.25-4.29-7.94Z"/>
    <path class="st0" d="M205.78,330.48c.26-1.36,4.35-4.93,6.49-2.56,1.16,1.32,2.11,4.91,2.66,7.49l-.53.4c-.5-1.86-1.18-3.09-1.87-3.72-1.4-1.3-3.74-.11-5.07,2.56-.73-.85-1.85-3.25-1.67-4.17Z"/>
    <path class="st0" d="M213.56,324.66c.29-1.35,4.49-4.8,6.55-2.37,1.13,1.35,1.97,4.97,2.44,7.56l-.54.38c-.45-1.87-1.09-3.12-1.77-3.77-1.37-1.34-3.73-.22-5.14,2.41-.7-.87-1.75-3.3-1.55-4.21Z"/>
    <path class="st0" d="M238.68,320.32c-2.42-3.24-6.36-1.11-7.46.23-.9,1.1-.01,1.74.68,5.36.22,1.2.83,3.95.92,4.88l-.64.41s-.93-4.16-2.95-7.58c-2.88-4.8-4.66-2.81-5.67-.65-.79-1.22-1.68-3.44-1.65-4.05.1-1.13,1.37-2.39,2.73-2.96,2.81-1.2,4.16,1.12,4.97,2.06.64-.65-.14-3.62-.34-3.92.71-2.12,2.86-3.55,3.99-3.27.75.18,1.77,3.03,1.52,4.1,1.74.13,3.3,1.25,4.13,2.4.94,1.32,2.51,4.95,2.54,7.85l-.77.51c-.6-3.04-1.4-4.57-1.99-5.37Z"/>
  </g><g>
    <path class="st0" d="M79.96,500.93c3.7-.47,5.08,4.04,6.38,5.01,1.95,1.45,5.72.37,8.01,1.34,2.01.77,8.07,4.09,4.95,9.14-.34.58.38-2.21-1.26-4.15-1.94-2.28-6.68-2.14-9.54-2.57-1.6-.24-3.05-.88-4.12-3.56-1.32-3.36-3.73.88-3.42,3.61-1.1-.38-2.71-1.08-3.45-1.79-1.62-1.58.35-6.77,2.44-7.03Z"/>
    <path class="st0" d="M84.27,499.91c-1.36-.52-3.21-1.59-3.66-2.36-.88-1.4.7-5.5,2.8-6.01,1.16-.26,4.95.02,13.37,8.81l-.27.71s-3.59-3-7.76-5.35c-3.52-1.99-4.55,1.62-4.48,4.2Z"/>
    <path class="st0" d="M88.01,490.33c-1.34-.56-3.16-1.69-3.58-2.47-.83-1.43.86-5.48,2.98-5.92,1.17-.22,4.95.18,13.08,9.22l-.3.7s-3.49-3.11-7.58-5.58c-3.46-2.1-4.6,1.47-4.6,4.05Z"/>
    <path class="st0" d="M88.81,477.83c-.41-1.32,1.51-6.4,4.51-5.32,1.65.61,4.18,3.33,5.88,5.35l-.27.6c-1.32-1.4-2.5-2.17-3.41-2.4-1.85-.48-3.35,1.67-3.26,4.65-1.05-.41-3.16-2-3.44-2.89Z"/>
    <path class="st0" d="M92.22,467.54c1.35.2,1.26-.88,3.83-6.36,2.34-5.04,6.37-2.69,6.92-2.38.55.31,4.34,2.69,6.16,5.1,3.9,5.1-.34,11.25-3.67,11.23-2.04,0-5.89-2.22-8.01-4.37l-.11.57c-.23,1.85-6.29-3.97-5.12-3.79ZM105.96,462.03c-4.81-3.52-7.49,4.31-8.33,7.85,1.05,1.01,2.29,2.13,3.22,2.42,5.55,1.78,8.51-7.76,5.11-10.27Z"/>
  </g><g>
    <path class="st0" d="M65.65,688.76c-1.47-1.02-2.6-7.27-.22-7.74,2.8-.55,4.55.89,5.78,2.1.45-.15,2.39-.87,3.3-.95,1.24-.14,5.2.39,6.87,1.18l.13.68c-2.9-.98-9,.46-10.27,1.68-.05.08-.93-.9-1.56-1.34-1.49-1.12-1.51,2.59.9,4.54-1.44.35-4.13.41-4.92-.15Z"/>
    <path class="st0" d="M68.04,677.7c-1.46.24-3.63.26-4.42-.18-1.49-.76-2.19-5.1-.6-6.6.89-.81,4.36-2.48,16.23.84l.12.75s-4.69-.77-9.54-.69c-4.1.07-3.17,3.7-1.79,5.88Z"/>
    <path class="st0" d="M67.33,664.15c-.92.5-1.94,1.35-1.46,3.79.06.26-3.79-1.2-4.53-1.78-.45-.35-.48-2.44,1.1-3.35-2.19-1.68-3.1-5.54-2.51-8,1.7-7.05,13.73-3.16,15.26-1.91,2.5,2.01,2.86,8.46,1.96,9.73l-4.67-.67c1.42-3.89.46-9-3.34-10.03-3.77-1.03-5.32,2.5-4.73,5.87.39,2.25,1.34,3.77,3.37,4.91,1.78,1.1,8.73,1.6,10.1,1.45l.07.95c-6.37.43-8.89-.38-10.62-.95Z"/>
    <path class="st0" d="M75.46,634.39l.07,1.25c-.74-.55-4.54-2.42-7.65-2.25-3.52.2-5.16,2.61-4.95,6.5.03.56.14,1.18.23,1.67.09.46.17.78.3,1.21h-.1s-.5-1.19-.5-1.19l.3-.02c9.77-.09,13.27.64,13.28,5.47.02.92-.1,3.02-.3,2.96l-4.95-.78c.41-.55.9-2.5.82-3.99-.12-2.18-3.42-2.79-8.54-2.47.54,1.89,1.4,3.4,1.72,3.84-2.04.11-4.49-.41-4.74-.63-.92-.87-1.88-2.97-2.03-5.65-.28-4.98,2.13-8.23,6.79-8.49,2.85-.16,6.61.39,10.26,2.53Z"/>
  </g><g>
    <path class="st0" d="M144.49,842.73l-4.42,2.2-6.17-7.77c-1.23.42-2.87,1.02-3.97,1.6-1.87.98-1.73,2.98.39,5.64,1.17,1.48,2.86,3.01,3.73,3.37,0,0-1.07.89-2.05,1.46-1.06.63-2.07.85-2.12.84-1.07-.12-3-2.35-3.78-3.33-2.45-3.08-2.65-5.62-.58-7.27,1.6-1.27,2.94-1.62,5.9-2.67-.05-.85-.06-2.15-.07-2.31.2-.12.46-.28,4.76-2.35l8.37,10.58Z"/>
    <path class="st0" d="M121.43,821.11c-3.13,2.56-.83,6.4.56,7.44,1.14.85,1.74-.07,5.32-.91,1.18-.28,3.91-1,4.84-1.14l.44.62s-4.12,1.11-7.45,3.28c-4.66,3.09-2.6,4.78-.41,5.7-1.18.85-3.36,1.83-3.98,1.82-1.13-.05-2.44-1.26-3.07-2.6-1.32-2.76.94-4.21,1.84-5.05-.68-.61-3.6.3-3.9.51-2.15-.62-3.67-2.7-3.43-3.85.15-.75,2.95-1.9,4.03-1.69.05-1.75,1.1-3.35,2.22-4.23,1.28-1,4.84-2.72,7.74-2.88l.54.75c-3.01.73-4.51,1.59-5.28,2.22Z"/>
  </g><g>
    <path class="st0" d="M296.49,964.58c-.1.25-.17.5-.12.74.22,1.66,1.91,2.95,3.78,3.7,1.72.7,3.58.95,4.56.63.54-.18-.74.59-1.33,2.07-.25.61-.38,1.38-.25,2.22.11,2.47-2.88,1.4-3.43,2.75-.43,1.07,1.19,1.83,1.02,2.23-.36.89-2.45.87-3.48.06-.38-.3-.5-.7-.4-1.23.41-1.98,3.39-3.09,3.65-3.2.25-.11,0-.79-.21-1.08l-.3-.05c-.85-.1-1.73-.31-2.93-.86-3.07-1.42-4.33-3.42-3.44-5.63.23-.59.55-1.17,1.01-1.81,5.62-7.83,12.44-6.86,15.69-5.91l-2.92,4.14c-4.08-1.82-10.12-.73-10.91,1.23Z"/>
    <path class="st0" d="M292.36,964.89c-.59,1.33-1.74,3.13-2.54,3.54-1.44.81-5.46-.97-5.86-3.1-.2-1.17.27-4.94,9.46-12.91l.7.31s-3.18,3.44-5.72,7.48c-2.16,3.42,1.39,4.63,3.97,4.68Z"/>
    <path class="st0" d="M275.09,954.73c-.12.24-.2.49-.17.73.1,1.67,1.7,3.08,3.51,3.96,1.67.81,3.5,1.2,4.5.95.55-.14-.78.54-1.47,1.96-.29.59-.48,1.35-.41,2.19-.07,2.47-2.98,1.19-3.62,2.5-.51,1.04,1.05,1.91.86,2.3-.42.86-2.51.69-3.48-.19-.36-.32-.45-.73-.31-1.25.55-1.94,3.6-2.84,3.87-2.93.27-.09.05-.78-.13-1.09l-.3-.07c-.84-.15-1.7-.43-2.86-1.07-2.96-1.63-4.07-3.72-3.02-5.86.27-.56.62-1.13,1.14-1.72,6.17-7.4,12.89-5.95,16.06-4.76l-3.21,3.92c-3.94-2.11-10.04-1.45-10.97.45Z"/>
    <path class="st0" d="M261.95,942.74c-1.7,3.66,2.04,6.13,3.74,6.46,1.4.27,1.54-.82,4.39-3.14.95-.76,3.09-2.61,3.86-3.13l.67.37s-3.23,2.79-5.27,6.2c-2.85,4.81-.26,5.44,2.11,5.3-.7,1.27-2.23,3.11-2.79,3.37-1.04.45-2.75-.07-3.9-1-2.39-1.91-.98-4.2-.54-5.35-.88-.25-3.12,1.84-3.29,2.16-2.21.38-4.48-.83-4.77-1.97-.2-.75,1.82-3,2.89-3.28-.71-1.6-.46-3.5.16-4.77.72-1.45,3.17-4.56,5.71-5.96l.81.45c-2.4,1.97-3.37,3.4-3.78,4.3Z"/>
  </g><g>
    <path class="st0" d="M507.83,993.89c-.83,1.1-6.09,2.48-6.94-.59-.46-1.7.29-5.34.95-7.89l.65-.12c-.38,1.89-.31,3.29.02,4.17.68,1.79,3.3,1.76,5.68-.04.27,1.09.21,3.73-.36,4.47Z"/>
    <path class="st0" d="M487.68,989.99c.29,1.9,2.34,3.29,4.92,2.91.55-.08,2.83-.32,5.84-1.61.34,1.12.1,3.59-.29,4.32-.37.66-1.64,1.35-5.17,1.88-4.29.64-6.86-.68-7.32-3.78-.32-2.16-.04-6.98,1.65-12.62l.75-.11c-.8,3.6-.71,6.86-.39,9.02Z"/>
    <path class="st0" d="M469.82,994.04c.82.59,1.2,4.31-.57,5.63-.71.53-1.76.7-2.35.75-3.76.35-4.23-2.3-4.33-3.42-.29-3.13,1.74-9.16,3.58-11.56,1.45-1.9,3.97-3.02,6.21-3.23,2.14-.2,4.23.44,5.27,1.67,1.75,2.03-.11,4.89.31,7.64.5,3.24,3.05,2.81,3.41,2.71,1.1-.3,1.5-.64,1.85-1.53.92,1.34.5,4.04-.19,5.17-.75,1.23-2.35,1.51-3.37,1.21-1.44-.46-1.76-2.13-1.85-2.75l-.02-.2.02.2c0,.73-.31,3.15-2.64,3.37-.63.06-1.7,0-2.38-.58-1.12-.92-1.62-3.57-1.12-5.24.02-.07,1.1,1.16,2.82,1,1.91-.17,2.65-1.14,2.66-3.27,0-3.89-5.06-4.02-6.79-3.79-2.23.31-6.24,1.51-6.2,4.82.02,2.36,1.58,3.04,3.02,2.91,1.19-.11,2.31-.91,2.68-1.51Z"/>
    <path class="st0" d="M446.79,984.23l1.25-.04c-.58.71-2.56,4.4-2.47,7.48.09,3.47,2.46,5.16,6.36,5.05.56-.02,1.19-.1,1.68-.18.46-.08.79-.15,1.22-.26v.1s-1.21.46-1.21.46v-.3c.19-9.63,1.02-13.06,5.85-12.93.92,0,3.02.18,2.95.38l-.92,4.85c-.54-.42-2.47-.96-3.96-.92-2.18.06-2.89,3.29-2.71,8.34,1.9-.48,3.44-1.29,3.89-1.6.05,2.02-.54,4.42-.77,4.65-.9.89-3.02,1.77-5.7,1.84-4.99.14-8.17-2.32-8.29-6.92-.08-2.81.58-6.5,2.84-10.03Z"/>
  </g><g>
    <path class="st0" d="M696.73,883.99c-3.59-.99-3.13-5.68-3.96-7.08-1.24-2.08-5.13-2.54-6.87-4.32-1.56-1.48-5.87-6.88-1.05-10.34.54-.4-1.2,1.89-.43,4.31.91,2.85,5.34,4.54,7.81,6.04,1.38.84,2.48,1.99,2.43,4.87-.08,3.61,3.78.63,4.55-2.01.87.77,2.08,2.04,2.49,2.97.89,2.08-2.93,6.11-4.95,5.55Z"/>
    <path class="st0" d="M692.35,883.28c1.05,1,2.35,2.7,2.47,3.59.27,1.63-2.76,4.81-4.89,4.47-1.17-.21-4.56-1.92-8.95-13.27l.53-.55s2.15,4.15,5.1,7.92c2.48,3.19,4.82.26,5.75-2.15Z"/>
    <path class="st0" d="M685.27,890.64c1.02,1.04,2.27,2.78,2.36,3.66.22,1.64-2.91,4.73-5.03,4.32-1.17-.24-4.5-2.07-8.54-13.56l.54-.54s2.03,4.22,4.85,8.08c2.39,3.26,4.81.41,5.81-1.97Z"/>
    <path class="st0" d="M667.21,906.27c1.01-.01,3.52,2.76,2.87,4.88-.26.85-1.01,1.6-1.45,2-2.82,2.5-4.77.65-5.52-.19-2.09-2.35-4.02-8.41-3.96-11.43.05-2.39,1.41-4.79,3.09-6.29,1.61-1.42,3.67-2.15,5.24-1.77,2.61.6,2.81,4.01,4.78,5.97,2.32,2.32,4.12.45,4.35.16.71-.9.83-1.4.58-2.33,1.54.53,2.8,2.95,2.91,4.27.12,1.44-1,2.62-2,2.98-1.43.47-2.68-.67-3.12-1.12l-.13-.15.13.15c.43.59,1.62,2.72-.14,4.27-.47.42-1.37,1-2.26.95-1.45-.08-3.42-1.91-4-3.56-.02-.07,1.58.28,2.86-.86,1.43-1.27,1.46-2.49.2-4.2-2.3-3.14-6.45-.24-7.72.97-1.62,1.57-4.13,4.91-2.14,7.56,1.41,1.89,3.07,1.52,4.16.55.89-.79,1.32-2.1,1.27-2.81Z"/>
    <path class="st0" d="M648.98,918.46c1.02,1.3,3.1,1.43,6.16-.89.8-.63,1.57-1.36,2.26-2.16-1.82-2.31-3.52-5.39-4.82-11.05l.88-.7s1.24,4.57,3.9,8.54c.56.82,1,1.32,1.29,1.59.32-.46.58-.87.79-1.25,1.08.79,2.42,3.61,2.42,4.2,0,1.3-2.14,3.87-3.88,5.23-3.4,2.68-6.89,3.27-8.83.8-1.35-1.71-3.49-6.04-4.81-11.78l.6-.47c1.09,3.52,2.69,6.21,4.04,7.92Z"/>
    <path class="st0" d="M636.61,927.39c1.11,1.57,3.56,1.9,5.7.39.46-.33,2.38-1.56,4.5-4.07.8.85,1.71,3.17,1.68,3.99-.03.75-.85,1.94-3.77,4-3.54,2.5-6.43,2.48-8.24-.09-1.26-1.78-3.17-6.22-4.19-12.01l.62-.44c.9,3.57,2.45,6.45,3.71,8.23Z"/>
    <path class="st0" d="M630.31,933.62c.85.6,2.04,1.14,4.04-.34.21-.17.52,3.89.31,4.8-.13.55-2,1.49-3.49.47-.59,2.67-3.68,5.15-6.15,5.69-7.07,1.54-8.66-10.84-8.18-12.75.76-3.09,6.42-6.2,7.94-5.95l1.38,4.44c-4.1.42-8.31,3.49-7.63,7.32.66,3.8,4.51,3.65,7.29,1.68,1.86-1.32,2.83-2.83,3-5.12.24-2.06-2.25-8.46-2.97-9.61l.83-.48c3.08,5.49,3.42,8.08,3.64,9.86Z"/>
  </g><g>
    <path class="st0" d="M771.23,743.41c1.38.46,3.29,1.44,3.77,2.19.95,1.36-.44,5.53-2.52,6.13-1.15.32-4.95.21-13.77-8.18l.24-.72s3.73,2.83,8,4.98c3.61,1.82,4.47-1.83,4.28-4.4Z"/>
    <path class="st0" d="M771.37,756.01c.52,1.28-1.01,6.5-4.08,5.65-1.69-.48-4.42-3-6.27-4.87l.22-.62c1.43,1.3,2.66,1.97,3.59,2.13,1.88.34,3.2-1.92,2.88-4.89,1.08.33,3.31,1.74,3.66,2.61Z"/>
    <path class="st0" d="M759.08,770.66c.25.1.5.17.74.12,1.66-.21,2.96-1.9,3.72-3.76.7-1.72.96-3.57.65-4.55-.17-.54.59.74,2.06,1.34.61.25,1.38.39,2.21.27,2.47-.1,1.39,2.89,2.73,3.44,1.07.44,1.84-1.17,2.24-1.01.89.36.85,2.45.04,3.48-.3.38-.7.5-1.23.39-1.97-.41-3.07-3.4-3.18-3.66-.11-.26-.79,0-1.08.2l-.05.3c-.1.85-.32,1.73-.88,2.93-1.43,3.06-3.44,4.3-5.64,3.4-.58-.24-1.17-.55-1.8-1.02-7.79-5.65-6.79-12.46-5.82-15.7l4.12,2.94c-1.85,4.07-.78,10.11,1.17,10.91Z"/>
    <path class="st0" d="M763.6,778.85c-1.35-.15-1.23.92-3.59,6.5-2.15,5.12-6.27,2.93-6.83,2.63-.56-.29-4.44-2.52-6.35-4.86-4.09-4.95-.08-11.26,3.25-11.36,2.04-.08,5.96,1.99,8.17,4.07l.08-.58c.17-1.85,6.43,3.74,5.26,3.6ZM750.07,784.87c4.94,3.34,7.33-4.59,8.03-8.16-1.08-.97-2.37-2.04-3.31-2.3-5.61-1.57-8.22,8.08-4.73,10.45Z"/>
    <path class="st0" d="M751.71,789.36c1.46.42,2.93,1.6,3.68,2.88.92,1.82-2.16,8.23-5.21,9.07-3.27.91-8.54-4-9.81-5.56-4.12-5.05,2.29-13.19,3.58-12.89,1.34,1.22,2.08,2.02,3.36,3.35-2.22.82-7.16,7.38-4.33,10.68,4.57,5.32,9.17-2.79,8.73-7.53Z"/>
  </g><g>
    <path class="st0" d="M778.81,582.56l-.18-1.24c.77.49,4.67,2.02,7.72,1.58,3.44-.5,4.84-3.04,4.27-6.9-.08-.56-.24-1.17-.37-1.65-.13-.45-.25-.77-.4-1.17l.1-.02.6,1.15-.3.04c-9.58.93-13.09.51-13.52-4.3-.1-.92-.17-3.02.03-2.98l4.93.35c-.35.59-.66,2.57-.44,4.04.31,2.16,3.6,2.48,8.6,1.72-.7-1.84-1.68-3.26-2.04-3.68,1.99-.29,4.45.02,4.71.21.98.79,2.11,2.8,2.5,5.45.72,4.94-1.35,8.38-5.89,9.05-2.78.4-6.52.18-10.3-1.64Z"/>
    <path class="st0" d="M779.5,585.86l4.9.57.92,9.88c1.26.31,2.96.72,4.2.84,2.11.2,3.08-1.55,2.76-4.94-.18-1.87-.75-4.08-1.29-4.86,0,0,1.38-.16,2.52-.1,1.23.05,2.2.42,2.24.45.83.69,1.23,3.6,1.35,4.86.36,3.92-.85,6.16-3.49,6.4-2.04.19-3.34-.25-6.4-1-.43.74-1.12,1.83-1.21,1.97-.24-.01-.53-.02-5.27-.64l-1.22-13.44Z"/>
    <path class="st0" d="M792.64,610.79c-.04-.06,3.93-.26,5,1.05,1.85,2.24.27,7.4-2.18,7.23-10.82-.78-14.36-3.28-14.65-10.34-.06-1.55.57-3.83,1.29-4.72,6.29,1.82,7.29,2.05,8.89,2.12,2.45.1,3.16-2.02,1.5-4.53,2.54-.11,3.85.34,4.53.9.58.47,1.32,3.92-.31,5.21-2.31,1.82-8.54-1.07-10.44-1.35-.66-.1-2.82,8.65,2.3,10.72,4.91,1.98,5.79-3.15,4.07-6.29Z"/>
  </g><g>
    <path class="st0" d="M711.11,396.26c-.07-.03,2.93-2.47,4.55-2.04,2.78.74,4.61,5.79,2.59,7.08-8.95,5.61-13.22,5.64-17.64.13-.97-1.21-1.82-3.41-1.78-4.54,6.02-2.16,6.94-2.56,8.23-3.42,1.99-1.34,1.29-3.44-1.51-4.51,1.93-1.55,3.22-1.95,4.1-1.89.74.04,3.36,2.39,2.84,4.37-.73,2.79-7.34,4.07-9,4.93-.59.3,2.92,8.58,8.17,7.3,5.03-1.23,2.67-5.87-.53-7.4Z"/>
    <path class="st0" d="M707.42,409.15l4.41-1.92,5.8,8.04c1.22-.35,2.85-.83,3.95-1.34,1.88-.87,1.8-2.85-.2-5.61-1.1-1.53-2.7-3.15-3.55-3.55,0,0,1.08-.82,2.06-1.32,1.06-.56,2.06-.72,2.11-.71,1.05.18,2.87,2.5,3.6,3.51,2.3,3.19,2.42,5.72.33,7.23-1.62,1.17-2.94,1.43-5.89,2.29.01.85-.01,2.13-.01,2.29-.2.11-.45.25-4.75,2.05l-7.86-10.96Z"/>
    <path class="st0" d="M732.82,427.68c.13-.99,3.17-2.98,5.14-2.01.79.4,1.42,1.25,1.74,1.75,2.04,3.17-.03,4.77-.95,5.37-2.57,1.65-8.73,2.55-11.66,1.99-2.31-.44-4.46-2.17-5.67-4.06-1.16-1.8-1.58-3.94-1-5.41.95-2.45,4.28-2.08,6.47-3.69,2.57-1.89,1.02-3.95.76-4.22-.77-.84-1.25-1.05-2.18-.95.73-1.42,3.26-2.25,4.55-2.14,1.41.11,2.4,1.4,2.61,2.45.27,1.48-1.03,2.51-1.52,2.87l-.16.11.16-.11c.63-.32,2.87-1.13,4.14.84.34.52.77,1.5.6,2.36-.29,1.4-2.34,3.03-4.02,3.33-.07,0,.49-1.49-.44-2.94-1.04-1.61-2.21-1.83-4.05-.89-3.36,1.73-1.13,6.27-.13,7.71,1.3,1.84,4.19,4.85,7.04,3.33,2.03-1.07,1.9-2.76,1.11-3.98-.65-1-1.85-1.64-2.55-1.7Z"/>
  </g><g>
    <path class="st0" d="M570.88,293.54c.74-1.77-.28-4.03-2.69-5.04-.52-.22-2.58-1.19-5.83-1.66.3-1.13,1.78-3.13,2.49-3.54.65-.37,2.1-.3,5.39,1.08,4,1.67,5.51,4.14,4.29,7.04-.84,2.01-3.59,5.99-7.97,9.93l-.7-.3c2.55-2.66,4.17-5.49,5.02-7.51Z"/>
    <path class="st0" d="M583.66,299.09c.93-1.97,1.5-2.95-1.94-4.57-1.02-.48-2.96-1.4-5.33-1.64.15-.7,1.74-3.85,3.64-3.69,1.54.14,9.28,2.95,9.88,5.39.44,1.63-2.22,3.63-2.24,3.51l-1.03-.3c-2.34,3.1-5.38,6.67-8.45,8.77l-.69-.32c4.03-3.98,4.6-4.48,6.15-7.15Z"/>
    <path class="st0" d="M599.12,311.14c1.67-3.68-2.09-6.11-3.8-6.42-1.4-.26-1.53.83-4.37,3.18-.94.77-3.06,2.64-3.83,3.17l-.67-.36s3.2-2.83,5.22-6.25c2.81-4.84.21-5.44-2.16-5.29.69-1.28,2.2-3.13,2.76-3.4,1.03-.46,2.75.05,3.91.97,2.4,1.89,1.02,4.19.59,5.34.88.25,3.1-1.87,3.27-2.19,2.2-.4,4.49.79,4.79,1.92.2.74-1.8,3.01-2.86,3.31.72,1.59.5,3.49-.12,4.77-.7,1.46-3.13,4.59-5.66,6.02l-.82-.44c2.38-1.99,3.34-3.43,3.75-4.34Z"/>
  </g></g><g id="ring-2" style="transform-box: view-box; transform-origin: 427.77px 630.04px;"><path class="st0" d="M426.11,950.59c-177.33,0-321.6-144.27-321.6-321.6s144.27-321.6,321.6-321.6,321.6,144.27,321.6,321.6-144.27,321.6-321.6,321.6ZM426.11,308.77c-176.57,0-320.22,143.65-320.22,320.22s143.65,320.22,320.22,320.22,320.22-143.65,320.22-320.22-143.65-320.22-320.22-320.22Z"/><polygon points="557.27,402.59 557.79,402.88 587.06,350.66 586.55,350.37" class="st0"/><polygon points="649.97,494.15 649.67,493.64 702.34,462.60 702.65,463.11" class="st0"/><polygon points="687.44,628.32 687.44,627.73 749.36,628.02 749.37,628.61" class="st0"/><polygon points="653.69,757.34 653.99,756.83 708.25,787.38 707.96,787.90" class="st0"/><polygon points="559.13,853.25 558.62,853.55 589.95,907.75 590.46,907.45" class="st0"/><polygon points="433.41,889.02 434.00,889.01 435.16,951.56 434.57,951.57" class="st0"/><polygon points="300.71,857.13 301.22,857.42 271.08,910.88 270.56,910.60" class="st0"/><polygon points="200.80,760.18 200.49,759.68 149.04,790.46 149.33,790.96" class="st0"/><polygon points="165.62,625.67 165.62,625.08 106.21,625.08 106.20,625.67" class="st0"/><polygon points="197.60,503.28 197.31,503.80 146.06,474.92 146.34,474.40" class="st0"/><polygon points="296.54,402.59 297.04,402.29 267.13,351.43 266.62,351.73" class="st0"/><polygon points="423.73,368.29 424.32,368.28 423.52,308.47 422.93,308.48" class="st0"/><g>
    <path class="st0" d="M384.46,332.64c-.3-2.03-2.83-3.13-5.42-2.75-2.39.35-4.81,1.37-6.22,2.22-.55-1.22-.25-3.94.05-4.45.64-1.13,3.77-2.29,5.97-2.61,4.28-.63,7.18.65,7.63,3.76.32,2.16.03,7.04-1.69,12.68l-.75.11c.81-3.6.74-6.79.43-8.95ZM378.8,338.71c-.33,1.65-.47,2.51-.65,4-2.69-.57-3.83-2.45-3.99-3.49-.22-1.47.22-3.94,1.25-5.86l.42-.06c-.65,3.27-.63,5.04,2.97,5.41Z"/>
    <path class="st0" d="M398.63,329.98c-.02-.26-.08-.52-.23-.71-.97-1.37-3.06-1.72-5.07-1.52-1.84.18-3.6.83-4.33,1.56-.39.4.38-.87.22-2.45-.07-.66-.31-1.4-.81-2.08-1.24-2.13,1.9-2.58,1.75-4.03-.11-1.15-1.9-1.07-1.94-1.5-.1-.95,1.77-1.9,3.05-1.67.47.08.77.39.92.9.56,1.94-1.56,4.31-1.74,4.52-.18.22.37.69.68.86l.29-.1c.8-.31,1.67-.53,2.99-.6,3.37-.17,5.42,1.02,5.66,3.39.06.62.06,1.29-.06,2.07-1.34,9.54-7.82,11.84-11.14,12.51l.66-5.02c4.46-.28,9.29-4.05,9.08-6.16Z"/>
    <path class="st0" d="M411.5,327.59c-.07.04-.3-3.92,1-5.01,2.22-1.87,7.39-.34,7.25,2.12-.68,10.82-3.15,14.39-10.21,14.74-1.55.08-3.83-.54-4.73-1.25,1.77-6.31,1.98-7.31,2.04-8.9.07-2.45-2.05-3.14-4.54-1.46-.12-2.54.3-3.85.87-4.55.46-.59,3.9-1.35,5.21.27,1.84,2.29-.99,8.56-1.26,10.46-.1.67,8.67,2.74,10.7-2.39,1.93-4.93-3.2-5.76-6.32-4.02Z"/>
  </g><g>
    <path class="st0" d="M239.64,391.28c-1.2-1.5-3.66-1.68-5.71-.05-.44.35-2.28,1.69-4.25,4.32-.85-.8-1.89-3.06-1.91-3.88,0-.75.74-1.98,3.53-4.21,3.39-2.7,6.27-2.84,8.23-.39,1.36,1.71,3.53,6.02,4.88,11.74l-.6.47c-1.11-3.51-2.82-6.29-4.18-7.99Z"/>
    <path class="st0" d="M241.78,385.84c-.87-1.17-1.85-3.07-1.82-3.96.01-1.65,3.55-4.27,5.6-3.55,1.12.4,4.16,2.68,6.53,14.63l-.61.45s-1.41-4.47-3.66-8.69c-1.9-3.57-4.71-1.09-6.03,1.12Z"/>
    <path class="st0" d="M261.82,372.98c-1-.13-3.09-3.23-2.15-5.23.38-.81,1.23-1.45,1.72-1.77,3.14-2.08,4.81.03,5.43.96,1.73,2.62,2.79,8.89,2.31,11.87-.39,2.35-2.07,4.54-3.95,5.78-1.79,1.19-3.93,1.61-5.43,1.02-2.5-.96-2.21-4.36-3.88-6.59-1.97-2.62-4.01-1.03-4.28-.77-.83.78-1.02,1.27-.9,2.22-1.44-.75-2.35-3.32-2.27-4.64.08-1.44,1.35-2.44,2.4-2.66,1.48-.27,2.55,1.04,2.92,1.55l.11.17-.11-.17c-.35-.64-1.22-2.92.74-4.21.52-.35,1.5-.8,2.37-.62,1.42.29,3.12,2.38,3.46,4.09,0,.07-1.52-.5-2.95.45-1.6,1.05-1.8,2.26-.8,4.13,1.83,3.42,6.35,1.15,7.77.13,1.82-1.32,4.78-4.27,3.18-7.18-1.13-2.07-2.82-1.93-4.04-1.13-.99.65-1.6,1.89-1.65,2.6Z"/>
  </g><g>
    <path class="st0" d="M125.91,578.94l.06.48c.53,2.51-6.19-1.21-5.41-1.4,1.63-.4.5-3.3,1.06-7.29.59-4.12,2.34-4.94,4.02-4.77,2.56.23,10.4,3.21,12.6,5.29l-1.67,11.85c-2.84-.8-7.78-2.54-10.66-4.15ZM133.78,570.37c-.8-.82-4.22-2.2-5.75-1.75-2.43.72-2.45,6.43-2.23,9.29,2.07,1.13,4.43,2.1,6.58,2.4.17-.78,1.27-8.54,1.4-9.95Z"/>
    <path class="st0" d="M124.01,562.1c-.71-1.17-.09-6.57,3.02-6.27,1.72.18,4.79,2.18,6.89,3.71l-.12.65c-1.6-1.03-2.9-1.47-3.83-1.47-1.88,0-2.79,2.45-1.99,5.32-1.1-.13-3.49-1.14-3.97-1.93Z"/>
    <path class="st0" d="M131.65,551.2c-1,.18-2.21.64-2.58,3.1-.03.26-3.05-2.37-3.54-3.16-.29-.47.37-2.46,2.12-2.8-1.44-2.3-.99-6.24.36-8.37,3.88-6.1,13.56,1.5,14.54,3.18,1.61,2.71-.19,8.92-1.43,9.82l-4.04-2.15c2.58-3.21,3.4-8.34.27-10.56-3.09-2.21-5.68.62-6.25,3.99-.39,2.25-.02,4,1.45,5.73,1.26,1.61,7.43,4.36,8.72,4.66l-.25.93c-5.95-1.68-7.98-3.27-9.36-4.37Z"/>
    <path class="st0" d="M133.99,535.73c-1.38-.38-3.3-1.25-3.8-1.97-.99-1.3.17-5.54,2.18-6.26,1.12-.38,4.85-.49,13.91,7.38l-.2.73s-3.8-2.62-8.09-4.52c-3.63-1.61-4.31,2.08-4,4.63Z"/>
    <path class="st0" d="M146.89,514.23c-3.85-.96-5.56,3.18-5.57,4.91-.01,1.42,1.07,1.35,3.83,3.7.91.78,3.08,2.52,3.72,3.18l-.23.72s-3.29-2.62-6.95-3.97c-5.16-1.87-5.3.8-4.75,3.09-1.36-.44-3.41-1.58-3.77-2.08-.62-.93-.43-2.71.26-4.01,1.42-2.7,3.88-1.77,5.08-1.56.09-.91-2.34-2.7-2.68-2.81-.76-2.08,0-4.55,1.04-5.05.69-.34,3.23,1.21,3.7,2.2,1.42-1,3.3-1.13,4.65-.77,1.54.42,4.98,2.23,6.79,4.44l-.28.88c-2.34-1.97-3.9-2.64-4.85-2.88Z"/>
    <path class="st0" d="M158.25,499.45l-.45,1.17c-.42-.8-3-4.04-5.82-5.13-3.18-1.23-5.62.3-7.03,3.94-.2.53-.37,1.14-.49,1.62-.11.45-.17.78-.23,1.22l-.09-.04.05-1.3.27.11c8.64,3.85,11.43,5.92,9.44,10.32-.36.85-1.33,2.71-1.48,2.58l-4.05-2.7c.59-.34,1.82-1.92,2.36-3.3.79-2.04-1.86-3.91-6.51-5.68-.3,1.94-.16,3.66-.05,4.2-1.85-.72-3.79-2.18-3.92-2.48-.45-1.17-.43-3.46.54-5.96,1.8-4.66,5.25-6.65,9.46-5.02,2.58,1,5.66,3.01,8,6.43Z"/>
  </g><g>
    <path class="st0" d="M343.69,915.4c-.58,1.94,1.26,3.98,3.76,4.73,2.31.69,4.94.79,6.57.63-.02,1.32-1.42,3.62-1.9,3.96-1.05.74-4.38.46-6.5-.17-4.15-1.24-6.24-3.6-5.35-6.57.62-2.06,2.92-6.31,6.82-10.62l.73.22c-2.24,2.87-3.51,5.76-4.12,7.82ZM351.37,912.35c.99-1.34,1.47-2.05,2.26-3.31,2.2,1.64,2.46,3.8,2.16,4.8-.42,1.41-1.85,3.43-3.58,4.72l-.41-.12c1.96-2.65,2.68-4.24-.43-6.08Z"/>
    <path class="st0" d="M329.72,911.82c-.09.25-.14.5-.08.73.31,1.63,2.06,2.83,3.97,3.5,1.75.61,3.62.78,4.58.42.52-.2-.71.62-1.22,2.1-.21.62-.3,1.38-.14,2.2.24,2.43-2.8,1.51-3.28,2.87-.37,1.08,1.28,1.76,1.14,2.16-.31.89-2.4.96-3.47.2-.39-.27-.54-.67-.46-1.2.3-1.97,3.22-3.2,3.47-3.32.25-.12-.05-.78-.26-1.06l-.3-.03c-.86-.06-1.74-.23-2.97-.73-3.13-1.27-4.49-3.19-3.72-5.41.2-.59.48-1.18.92-1.82,5.2-7.97,12.04-7.3,15.33-6.5l-2.7,4.21c-4.16-1.62-10.13-.29-10.81,1.68Z"/>
    <path class="st0" d="M325.64,912.33c-.51,1.34-1.57,3.17-2.35,3.6-1.39.86-5.5-.72-6-2.8-.26-1.15,0-4.89,8.76-13.15l.71.27s-2.99,3.53-5.32,7.63c-1.97,3.46,1.63,4.5,4.2,4.45Z"/>
    <path class="st0" d="M308.71,892.7l1.15.5c-.82.39-4.17,2.84-5.38,5.61-1.37,3.14.05,5.65,3.63,7.22.51.22,1.12.42,1.6.56.45.13.78.2,1.21.28l-.04.09-1.29-.1.12-.27c4.23-8.5,6.42-11.21,10.74-9.03.83.4,2.65,1.45,2.51,1.6l-2.88,3.94c-.31-.6-1.84-1.91-3.2-2.51-2-.88-4,1.7-5.97,6.28,1.93.38,3.65.32,4.19.24-.8,1.82-2.35,3.71-2.65,3.82-1.19.4-3.48.29-5.94-.79-4.57-2.01-6.41-5.56-4.59-9.71,1.11-2.54,3.26-5.55,6.78-7.74Z"/>
    <path class="st0" d="M305.59,891.55l-3.05,3.79-8.87-4.44c-.93.89-2.16,2.09-2.91,3.07-1.27,1.66-.29,3.39,2.75,4.92,1.68.84,3.86,1.53,4.8,1.49,0,0-.58,1.24-1.22,2.16-.69,1-1.51,1.61-1.56,1.63-1.02.33-3.71-.87-4.83-1.44-3.52-1.76-4.78-3.97-3.61-6.3.91-1.81,1.96-2.66,4.19-4.83-.4-.75-.97-1.91-1.04-2.05.13-.19.29-.44,3.3-4.07l12.04,6.07Z"/>
  </g><g>
    <path class="st0" d="M521.8,921.02l.41-.25c2.07-1.52,1.46,6.26.96,5.61-1.05-1.35-3.22.89-7.1,2.01-4,1.15-5.48-.14-6.02-1.77-.85-2.47-1.38-10.99-.39-13.89l11.5-3.32c.44,2.97.91,8.27.63,11.62ZM510.73,917.23c-.41,1.08-.26,4.82.79,6.07,1.67,1.96,6.88-.37,9.41-1.75.17-2.39.08-4.98-.53-7.11-.78.16-8.31,2.33-9.66,2.79Z"/>
    <path class="st0" d="M507.28,929.7c-.77,1.14-5.95,2.79-6.96-.22-.55-1.67,0-5.35.53-7.93l.64-.16c-.28,1.91-.14,3.3.24,4.16.77,1.75,3.38,1.58,5.67-.34.33,1.07.4,3.71-.12,4.49Z"/>
    <path class="st0" d="M498.93,916.01c-.23,2.08-.71,4.75-.71,4.75-10.65-1.58-9.33,4.12-8.66,5.84,1.19,3.03,4.35,3.91,7.09,1.2.41,3.19.93,5.31-2.94,6.04-1.33.25-3.99.48-4.72-2.65-.43-1.87-1.37-10.09.66-12.75,2.01-2.62,9.38-3.25,9.29-2.42Z"/>
    <path class="st0" d="M486.54,934.44c-1.06,1.43-7.33,2.43-7.74.09-.49-2.77.99-4.47,2.23-5.67-.15-.44-.82-2.37-.88-3.27-.12-1.22.51-5.13,1.33-6.75l.68-.12c-1.05,2.84.26,8.89,1.46,10.15.07.05-.92.9-1.38,1.52-1.15,1.45,2.55,1.53,4.56-.8.32,1.42.32,4.07-.25,4.85Z"/>
    <path class="st0" d="M461.02,927.52c.78,3.97,5.26,3.75,6.83,3.01,1.29-.6.76-1.57,1.7-5.12.31-1.17.95-3.93,1.27-4.8l.75-.1s-.96,4.16-.61,8.11c.53,5.57,2.99,4.55,4.83,3.04.19,1.44.03,3.83-.26,4.37-.57.97-2.26,1.56-3.74,1.49-3.05-.13-3.27-2.81-3.59-4-.86.31-1.44,3.32-1.39,3.68-1.56,1.6-4.11,1.97-5.01,1.22-.6-.49-.29-3.5.4-4.35-1.52-.87-2.43-2.55-2.68-3.95-.28-1.6-.12-5.55,1.1-8.18l.92-.12c-.77,3-.72,4.73-.52,5.7Z"/>
    <path class="st0" d="M453.65,933.19c.46.93,1.26,1.97,3.72,1.6.26-.05-1.37,3.68-1.98,4.38-.37.42-2.46.37-3.3-1.23-1.78,2.08-5.67,2.82-8.11,2.13-6.97-1.97-2.55-13.65-1.22-15.1,2.12-2.37,8.58-2.46,9.81-1.52l-.87,4.57c-3.82-1.56-8.98-.83-10.18,2.87-1.2,3.66,2.26,5.35,5.65,4.91,2.27-.29,3.83-1.16,5.06-3.11,1.17-1.71,1.99-8.53,1.9-9.88l.96-.03c.14,6.29-.78,8.74-1.42,10.41Z"/>
  </g><g>
    <path class="st0" d="M630.77,843.13l2.43,4.3-7.43,6.57c.49,1.2,1.16,2.81,1.8,3.88,1.09,1.82,3.07,1.57,5.62-.69,1.41-1.25,2.85-3.01,3.17-3.9,0,0,.95,1.02,1.57,1.97.69,1.02.95,2.02.95,2.07-.07,1.07-2.18,3.12-3.12,3.95-2.95,2.61-5.48,2.95-7.23.97-1.36-1.54-1.77-2.85-2.97-5.76-.85.09-2.14.17-2.31.19-.13-.2-.3-.44-2.6-4.63l10.13-8.92Z"/>
    <path class="st0" d="M616.09,866.95c1.2,1.49,3.67,1.66,5.71.02.44-.35,2.27-1.71,4.22-4.35.85.8,1.91,3.05,1.94,3.87.01.75-.73,1.99-3.51,4.23-3.37,2.72-6.25,2.88-8.23.44-1.37-1.7-3.57-6-4.96-11.72l.59-.48c1.13,3.51,2.85,6.28,4.23,7.97Z"/>
    <path class="st0" d="M601.58,863.78c-.59-1.58-1.17-2.59-1.86-3.8,2.62-.9,4.91-.41,6.87,1.97,1.73,2.13,3.54,6.15,4.46,10.14l-.63.54c-1.13-3.15-3.65-11.89-8.85-8.84ZM613.58,871.66c-.25,1-2.69,3.82-4.39,5.08-1.6,1.17-4.77,2.61-6.01.48-1.05-1.82-.04-5.19,1.55-6.6l-2.24-3.77c-1.27,3.24-1.72,5.87-.76,9.46,1.4,5.14,4.63,8.47,10.72,3.69.54-.44,3.14-2.43,3.02-4.27-.14-2.03-1.89-4.07-1.89-4.07Z"/>
    <path class="st0" d="M599.79,875.68c-.76-.25-3.24.44-5.7,1.75.49,1.46,1.12,3.19,1.89,4.89,1.22,2.68,4.53,1.99,5.75-1.19.89,1.04,2.15,3.13,1.88,4.27-.31,1.15-2.62,3.12-4.29,3.16-2.01.02-4.21-2.77-5.95-10.73-3.38,1.96-6.45,4.98-5.31,8.51.93,2.91,5.67,2.27,6.86-.89.73,1.1,1.57,2.73,1.66,3.65.19,1.66-1.85,3.01-2.02,3.12-.36.24-5.1,3.97-7.76-7.58-2.1-9.16,11.27-15.43,11.95-13.74.2.9.41,2.18,1.03,4.79Z"/>
  </g><g>
    <path class="st0" d="M703.3,731.84l.44-1.18c.44.8,3.13,4.01,6.01,5.08,3.25,1.2,5.7-.36,7.05-4.02.2-.52.35-1.14.46-1.62.1-.46.15-.79.21-1.23l.09.03-.02,1.3-.28-.1c-8.86-3.77-11.73-5.82-9.81-10.26.35-.85,1.29-2.73,1.46-2.6l4.16,2.67c-.59.35-1.81,1.94-2.33,3.33-.76,2.05,1.97,3.9,6.73,5.63.26-1.95.09-3.67-.03-4.2,1.89.7,3.89,2.15,4.03,2.44.49,1.17.52,3.47-.41,5.98-1.73,4.68-5.2,6.71-9.5,5.12-2.63-.97-5.81-2.96-8.25-6.37Z"/>
    <path class="st0" d="M706.27,752.8c.91-.43,4.34,1.05,4.64,3.24.12.88-.25,1.88-.49,2.42-1.52,3.45-4.07,2.58-5.09,2.12-2.87-1.27-7.15-5.98-8.35-8.75-.95-2.19-.71-4.94.2-6.99.87-1.97,2.44-3.47,4.02-3.79,2.62-.54,4.22,2.48,6.82,3.45,3.07,1.14,3.93-1.3,4.02-1.66.27-1.11.17-1.62-.44-2.36,1.62-.15,3.77,1.52,4.42,2.67.71,1.25.17,2.79-.59,3.54-1.11,1.03-2.71.5-3.3.27l-.18-.08.18.08c.64.35,2.6,1.8,1.65,3.95-.25.57-.83,1.47-1.66,1.8-1.35.52-3.91-.32-5.12-1.57-.05-.06,1.55-.4,2.24-1.97.77-1.75.29-2.87-1.56-3.9-3.39-1.9-5.97,2.46-6.61,4.09-.82,2.1-1.72,6.18,1.2,7.75,2.07,1.13,3.42.1,4.01-1.23.48-1.09.33-2.46-.01-3.08Z"/>
    <path class="st0" d="M687.99,759.89c-1.23-1.15-2.2-1.8-3.36-2.58,1.94-1.97,4.21-2.56,7.02-1.3,2.5,1.13,5.9,3.92,8.51,7.08l-.32.77c-2.41-2.32-8.56-9-11.85-3.97ZM702.23,761.6c.23,1.01-.7,4.62-1.66,6.5-.9,1.76-3.11,4.46-5.16,3.11-1.75-1.16-2.35-4.62-1.55-6.59l-3.68-2.37c.3,3.46,1.07,6.01,3.54,8.8,3.53,3.97,7.91,5.51,11.23-1.47.29-.63,1.72-3.57.8-5.16-1.03-1.75-3.5-2.8-3.5-2.8Z"/>
  </g><g>
    <path class="st0" d="M732.9,584.52c1.04.91,2.03,6.25-1.09,6.88-1.72.34-5.3-.68-7.79-1.52l-.08-.66c1.86.52,3.26.55,4.16.28,1.83-.55,1.99-3.16.37-5.67,1.11-.2,3.73.06,4.44.68Z"/>
    <path class="st0" d="M727.79,603.28c2.18-.17,3.3-.16,3-3.95-.09-1.12-.26-3.27-1.23-5.45.68-.22,4.22-.4,5.02,1.32.64,1.41,2.05,9.52.23,11.27-1.2,1.19-4.25-.12-4.16-.2l-.25-1.04c-3.86-.49-8.47-1.35-11.82-2.97l-.06-.76c5.47,1.52,6.18,1.76,9.27,1.78Z"/>
    <path class="st0" d="M719.6,606.1l5.05,1.31c-1.02,1.13-1.38,2.23-1.2,3.55.35,2.44,3.26,3.26,4.56,3.48,2.83.5,4.01-.84,3.95-2.46-.03-.86-.39-1.54-1.53-2.99,3.05.09,4.02.32,4.6.82,1.6,1.4,1.37,5.87-.06,6.72-.91.53-3.16.38-5.63-.2-1.44.42-1.11,2.32-4.47,2.74-5.7.7-8.3-4.43-8.19-4.34l-.02-.6c2.64,2.49,5.98,2.47,6.72.19-2.12-.98-3.88-2.15-4.55-3.35-1.17-2.04.48-4.98.78-4.89Z"/>
  </g><g>
    <path class="st0" d="M661.32,436.5c1.36.21,5.05,4.2,2.75,6.4-1.28,1.21-4.84,2.26-7.4,2.89l-.41-.51c1.84-.56,3.05-1.28,3.66-1.99,1.26-1.44,0-3.74-2.72-4.98.83-.76,3.19-1.94,4.11-1.8Z"/>
    <path class="st0" d="M667.62,454.56c.21-.16.4-.35.48-.57.67-1.53-.11-3.51-1.32-5.12-1.11-1.48-2.57-2.66-3.58-2.89-.55-.12.94-.12,2.21-1.08.53-.4,1.04-.98,1.36-1.76,1.18-2.17,3.19.29,4.36-.58.92-.69-.07-2.18.27-2.44.77-.57,2.55.53,3.01,1.75.17.45.07.86-.3,1.26-1.37,1.48-4.49.89-4.77.85-.28-.04-.4.67-.38,1.03l.23.2c.68.52,1.32,1.16,2.06,2.25,1.89,2.79,1.93,5.16.03,6.59-.5.38-1.07.72-1.8,1.02-8.85,3.79-14.18-.56-16.46-3.06l4.63-2.03c2.55,3.67,8.28,5.85,9.97,4.59Z"/>
    <path class="st0" d="M674.42,465.6c1.8-1.24,2.78-1.8.62-4.93-.64-.92-1.86-2.69-3.79-4.1.48-.53,3.45-2.46,5-1.36,1.26.9,6.54,7.22,5.84,9.63-.44,1.63-3.75,2.02-3.7,1.91l-.74-.78c-3.58,1.51-8,3.07-11.72,3.34l-.43-.63c5.49-1.42,6.23-1.57,8.91-3.1Z"/>
  </g><g>
    <path class="st0" d="M527.25,339.48l-.48-.05c-2.57-.05,2.65-5.85,2.65-5.03,0,1.7,3.1,1.25,6.85,2.72,3.88,1.52,4.26,3.45,3.7,5.07-.83,2.48-5.6,9.56-8.15,11.26l-11.14-4.37c1.45-2.63,4.32-7.12,6.57-9.61ZM533.73,349.23c.98-.61,3.15-3.67,3.07-5.3-.13-2.57-5.68-3.9-8.53-4.34-1.59,1.79-3.1,3.9-3.9,5.97.71.35,8.01,3.21,9.36,3.67Z"/>
    <path class="st0" d="M544.15,341.47c1.31-.43,6.42,1.41,5.39,4.43-.59,1.66-3.27,4.23-5.26,5.96l-.61-.27c1.39-1.34,2.12-2.53,2.35-3.45.46-1.86-1.72-3.32-4.7-3.19.39-1.06,1.94-3.19,2.83-3.49Z"/>
    <path class="st0" d="M542.88,357.58l3.51-3.85c.52,1.43,1.33,2.26,2.58,2.72,2.32.82,4.4-1.36,5.2-2.41,1.76-2.27,1.13-3.94-.33-4.64-.77-.37-1.54-.38-3.36-.04,1.5-2.65,2.15-3.4,2.87-3.68,1.99-.77,5.84,1.53,5.92,3.18.05,1.05-1.14,2.98-2.8,4.89-.3,1.47,1.54,2.06.34,5.23-2.04,5.37-7.79,5.27-7.66,5.23l-.54-.26c3.43-1.17,4.97-4.14,3.3-5.86-1.86,1.42-3.71,2.44-5.08,2.47-2.35.08-4.18-2.75-3.96-2.97Z"/>
    <path class="st0" d="M568.05,360.76c1.02-1.93,1.63-2.87-1.73-4.65-1-.53-2.9-1.53-5.25-1.88.18-.69,1.92-3.77,3.81-3.52,1.53.22,9.14,3.38,9.63,5.85.36,1.65-2.39,3.53-2.4,3.41l-1.01-.35c-2.48,2.99-5.68,6.42-8.85,8.38l-.67-.35c4.21-3.8,4.8-4.27,6.48-6.87Z"/>
  </g></g><g id="ring-3" style="transform-box: view-box; transform-origin: 427.77px 630.04px;"><path class="st0" d="M426.11,890.1c-144.24,0-261.6-117.35-261.6-261.6s117.35-261.6,261.6-261.6,261.6,117.35,261.6,261.6-117.35,261.6-261.6,261.6ZM426.11,368.03c-143.63,0-260.47,116.85-260.47,260.47s116.85,260.47,260.47,260.47,260.47-116.85,260.47-260.47-116.85-260.47-260.47-260.47Z"/><polygon points="607.92,545.25 607.67,544.71 664.14,519.12 664.39,519.66" class="st0"/><polygon points="606.31,718.19 606.57,717.66 660.78,744.56 660.51,745.09" class="st0"/><polygon points="471.56,824.26 472.14,824.12 482.85,883.67 482.27,883.77" class="st0"/><polygon points="303.43,785.53 303.89,785.89 263.08,832.03 262.64,831.64" class="st0"/><polygon points="228.67,632.33 228.68,632.93 165.58,632.65 165.59,632.05" class="st0"/><polygon points="303.07,474.81 302.61,475.18 262.64,425.66 263.10,425.29" class="st0"/><polygon points="469.01,435.24 469.59,435.37 483.32,373.88 482.75,373.75" class="st0"/><g>
    <path class="st0" d="M430.01,382.75c.09-1.87-2-3.31-4.39-3.42-2.21-.11-4.57.39-5.99.9-.28-1.2.47-3.59.82-3.99.77-.91,3.8-1.4,5.83-1.3,3.96.19,6.34,1.85,6.21,4.72-.1,2-1.21,6.35-3.74,11.11l-.7-.03c1.36-3.09,1.86-5.98,1.95-7.98ZM423.86,387.22c-.58,1.43-.86,2.17-1.29,3.49-2.32-.99-3.02-2.87-2.97-3.84.07-1.36.89-3.51,2.15-5.05l.39.02c-1.16,2.83-1.45,4.42,1.72,5.39Z"/>
    <path class="st0" d="M435.92,376.54c1-.77,5.99-.7,5.99,2.22-.01,1.61-1.57,4.65-2.77,6.74l-.6-.05c.8-1.58,1.08-2.83,1-3.69-.16-1.75-2.48-2.36-5.03-1.35.02-1.03.73-3.35,1.41-3.87Z"/>
    <path class="st0" d="M452.76,384.9c.21-1.75-1.27-3.48-3.65-3.76-.51-.06-2.58-.4-5.56.01-.02-1.07.77-3.2,1.3-3.75.49-.49,1.77-.8,5.02-.41,3.95.47,5.9,2.26,5.56,5.12-.23,1.99-1.65,6.18-4.52,10.76l-.69-.08c1.58-2.99,2.29-5.9,2.52-7.88Z"/>
    <path class="st0" d="M469.17,390.46c.36-3.69-3.62-4.68-5.2-4.45-1.29.19-1.08,1.17-2.84,4.05-.59.95-1.88,3.2-2.39,3.88l-.69-.11s1.94-3.4,2.68-6.96c1.01-5.02-1.42-4.78-3.44-3.94.22-1.32.99-3.37,1.39-3.77.76-.7,2.4-.77,3.68-.32,2.64.92,2.12,3.33,2.09,4.46.84-.05,2.14-2.54,2.19-2.87,1.79-1,4.13-.64,4.72.25.39.59-.67,3.15-1.5,3.72,1.1,1.16,1.46,2.88,1.31,4.18-.18,1.48-1.36,4.91-3.13,6.89l-.84-.14c1.47-2.43,1.88-3.96,1.97-4.87Z"/>
  </g><g>
    <path class="st0" d="M555.74,837.22c-.39,1.2-4.52,3.98-6.19,1.58-.91-1.33-1.36-4.71-1.55-7.12l.52-.3c.24,1.75.72,2.95,1.27,3.6,1.12,1.34,3.38.53,4.9-1.75.57.86,1.3,3.16,1.04,3.98Z"/>
    <path class="st0" d="M538.43,840.4c.12.21.26.41.45.52,1.3.82,3.2.39,4.83-.48,1.5-.8,2.77-1.96,3.13-2.84.19-.48-.02.87.67,2.15.29.53.75,1.08,1.41,1.48,1.8,1.37-.71,2.85-.08,4.03.5.94,1.99.25,2.17.6.41.78-.84,2.23-2.01,2.48-.43.09-.79-.06-1.1-.45-1.15-1.45-.18-4.2-.1-4.44.07-.25-.55-.46-.88-.49l-.21.18c-.57.54-1.23,1.04-2.33,1.55-2.8,1.32-4.95,1.02-5.98-.9-.27-.51-.5-1.07-.67-1.77-2.19-8.55,2.5-12.77,5.09-14.5l1.19,4.48c-3.68,1.79-6.47,6.68-5.56,8.39Z"/>
    <path class="st0" d="M527.51,845.01c.88,1.8,1.25,2.76,4.38,1.24.93-.45,2.7-1.32,4.23-2.87.42.51,1.75,3.46.55,4.72-.99,1.02-7.44,4.94-9.53,3.97-1.42-.63-1.32-3.67-1.22-3.62l.8-.56c-.87-3.45-1.68-7.67-1.42-11.07l.63-.3c.53,5.17.56,5.86,1.58,8.5Z"/>
    <path class="st0" d="M518.28,856.1c-.54,1.14-4.99,3.38-6.34.79-.74-1.43-.75-4.85-.65-7.26l.56-.24c.02,1.77.35,3.01.81,3.74.95,1.48,3.29.95,5.09-1.12.45.92.89,3.3.53,4.08Z"/>
    <path class="st0" d="M500.48,856.37c.71,1.87.99,2.86,4.25,1.63.96-.37,2.8-1.07,4.47-2.47.37.54,1.43,3.6.12,4.75-1.07.92-7.85,4.25-9.85,3.09-1.35-.75-.98-3.77-.89-3.71l.85-.49c-.56-3.52-.98-7.79-.41-11.16l.65-.25c.06,5.2.03,5.89.8,8.61Z"/>
    <path class="st0" d="M495.96,849.88l.16,4.78c-1.25-.6-2.32-.63-3.43-.13-2.05.95-2.02,3.72-1.87,4.91.3,2.62,1.78,3.31,3.19,2.83.75-.25,1.25-.74,2.23-2.12.71,2.7.76,3.62.47,4.26-.81,1.77-4.81,2.73-5.92,1.7-.7-.66-1.16-2.68-1.3-5-.74-1.16-2.33-.37-3.57-3.22-2.1-4.83,1.74-8.45,1.68-8.33l.52-.18c-1.5,2.97-.61,5.9,1.58,5.96.31-2.12.87-3.97,1.75-4.87,1.5-1.56,4.51-.87,4.51-.59Z"/>
  </g><g>
    <path class="st0" d="M676.97,633.18l-.08-.43c-.58-2.29,5.82.92,5.1,1.11-1.51.42-.35,3.04-.73,6.72-.4,3.8-2.01,4.61-3.58,4.5-2.39-.13-9.81-2.61-11.94-4.45l1.15-10.92c2.67.65,7.34,2.08,10.09,3.47ZM669.93,641.28c.78.72,4.01,1.88,5.43,1.42,2.24-.74,2.06-5.97,1.76-8.59-1.97-.97-4.2-1.78-6.22-2-.13.72-.88,7.86-.96,9.17Z"/>
    <path class="st0" d="M679.35,648.55c.71,1.05.34,6.02-2.57,5.85-1.61-.1-4.54-1.84-6.56-3.16l.08-.6c1.52.89,2.76,1.25,3.62,1.22,1.75-.06,2.5-2.34,1.65-4.94,1.03.08,3.3.92,3.78,1.64Z"/>
    <path class="st0" d="M664.8,651.51l4.27,2.13c-1.13.82-1.66,1.74-1.75,2.95-.15,2.25,2.3,3.54,3.43,3.98,2.44.98,3.75,0,4.01-1.45.13-.78-.05-1.45-.8-2.97,2.72.66,3.54,1.05,3.96,1.62,1.17,1.56.11,5.52-1.33,6.01-.91.3-2.9-.26-5.01-1.25-1.37.1-1.44,1.87-4.53,1.61-5.24-.45-6.59-5.55-6.52-5.45l.1-.54c1.89,2.73,4.89,3.35,5.99,1.45-1.71-1.28-3.07-2.66-3.45-3.86-.65-2.05,1.38-4.37,1.63-4.23Z"/>
    <path class="st0" d="M667.93,676.13c1.96.42,2.95.73,3.69-2.67.22-1.01.64-2.93.36-5.1.65-.01,3.8.76,4.05,2.49.19,1.41-.72,8.9-2.78,9.94-1.36.73-3.7-1.24-3.6-1.27l.06-.98c-3.25-1.45-7.07-3.43-9.58-5.74l.15-.68c4.39,2.78,4.96,3.18,7.66,4.02Z"/>
    <path class="st0" d="M653.9,696.45l.32-1.11c.46.7,3.13,3.46,5.84,4.24,3.06.88,5.19-.71,6.18-4.14.14-.5.25-1.07.31-1.52.06-.42.09-.73.11-1.14l.09.02.07,1.18-.26-.07c-8.35-2.86-11.12-4.54-9.66-8.73.27-.8,1-2.58,1.16-2.47l3.98,2.16c-.51.36-1.53,1.9-1.9,3.2-.56,1.92,2.07,3.44,6.53,4.7.11-1.8-.16-3.36-.31-3.85,1.77.51,3.7,1.7,3.85,1.96.52,1.04.7,3.14.02,5.5-1.27,4.4-4.3,6.49-8.35,5.32-2.47-.71-5.51-2.32-7.97-5.27Z"/>
    <path class="st0" d="M658.11,715.42c.8-.46,4.05.65,4.47,2.63.17.8-.09,1.73-.27,2.25-1.14,3.26-3.53,2.65-4.5,2.31-2.72-.95-6.97-4.95-8.26-7.4-1.02-1.94-1-4.47-.32-6.41.65-1.86,1.98-3.35,3.41-3.75,2.36-.68,4.03,1.96,6.49,2.66,2.89.82,3.5-1.47,3.55-1.8.17-1.03.04-1.5-.57-2.13,1.47-.25,3.56,1.12,4.23,2.13.74,1.1.36,2.54-.28,3.27-.94,1.02-2.45.65-3,.49l-.17-.06.17.06c.61.28,2.51,1.46,1.8,3.49-.19.54-.65,1.41-1.39,1.76-1.2.58-3.6,0-4.8-1.07-.05-.05,1.39-.48,1.91-1.96.58-1.66.06-2.65-1.71-3.46-3.24-1.49-5.27,2.68-5.75,4.22-.6,1.97-1.13,5.77,1.65,7.01,1.97.88,3.14-.15,3.58-1.41.36-1.03.12-2.27-.23-2.81Z"/>
    <path class="st0" d="M641.92,723.26c-1.21-.96-2.15-1.47-3.27-2.1,1.62-1.95,3.65-2.66,6.32-1.72,2.37.85,5.7,3.13,8.32,5.82l-.23.72c-2.38-1.93-8.52-7.57-11.14-2.72ZM655.07,723.73c.28.9-.28,4.27-1.02,6.07-.69,1.68-2.5,4.32-4.48,3.24-1.69-.92-2.5-4.04-1.93-5.91l-3.55-1.89c.54,3.14,1.44,5.41,3.91,7.78,3.53,3.35,7.65,4.43,10.16-2.21.21-.6,1.3-3.4.33-4.78-1.08-1.52-3.42-2.29-3.42-2.29Z"/>
  </g><g>
    <path class="st0" d="M576.21,445.01c-1.37.71-2.06,1.1-3.24,1.82-1.12-2.25-.44-4.14.22-4.85.93-1,2.95-2.09,4.91-2.46l.29.27c-2.72,1.4-3.97,2.42-2.18,5.22ZM583.79,445.59c1.28-1.37.62-3.82-1.12-5.45-1.62-1.51-3.73-2.66-5.14-3.2.56-1.09,2.68-2.42,3.22-2.51,1.17-.19,3.8,1.4,5.28,2.78,2.9,2.71,3.63,5.52,1.67,7.62-1.36,1.46-5.03,4.05-10.04,6.04l-.51-.48c3.04-1.47,5.29-3.35,6.66-4.81Z"/>
    <path class="st0" d="M593.85,454.21c.17-.17.32-.36.37-.58.42-1.47-.53-3.17-1.83-4.49-1.19-1.21-2.66-2.1-3.6-2.19-.51-.05.84-.23,1.87-1.25.43-.42.82-1.02,1.02-1.77.81-2.11,2.94-.12,3.89-1.06.75-.75-.33-1.97-.05-2.25.62-.62,2.37.17,2.95,1.22.21.39.16.77-.12,1.18-1.06,1.51-3.97,1.36-4.23,1.36-.25,0-.28.66-.22.98l.23.15c.68.39,1.34.89,2.15,1.8,2.06,2.31,2.38,4.45.83,5.98-.41.4-.89.78-1.51,1.14-7.58,4.52-12.95,1.22-15.34-.77l3.96-2.41c2.76,3.02,8.24,4.31,9.62,2.95Z"/>
    <path class="st0" d="M602.95,462c-.06-.02,2.62-2.48,4.15-2.18,2.61.51,4.51,5.07,2.68,6.39-8.1,5.77-12.07,6.06-16.4,1.24-.95-1.06-1.83-3.04-1.84-4.1,5.52-2.38,6.35-2.81,7.52-3.69,1.79-1.36,1.06-3.27-1.58-4.08,1.74-1.56,2.92-2.01,3.74-2.01.69,0,3.22,2,2.81,3.87-.57,2.63-6.67,4.23-8.18,5.14-.53.32,3.06,7.77,7.88,6.25,4.63-1.46,2.26-5.61-.79-6.83Z"/>
    <path class="st0" d="M604.22,479.17l4.06-1.98,5.59,7.16c1.12-.38,2.63-.91,3.65-1.43,1.73-.89,1.61-2.72-.32-5.17-1.06-1.36-2.59-2.78-3.39-3.11,0,0,.98-.81,1.89-1.32.98-.57,1.9-.76,1.95-.75.98.12,2.73,2.17,3.44,3.08,2.22,2.84,2.39,5.17.48,6.66-1.48,1.16-2.7,1.46-5.43,2.4.03.78.04,1.97.04,2.12-.18.11-.42.25-4.38,2.12l-7.58-9.76Z"/>
    <path class="st0" d="M625.28,493.96c1.43-1.02,1.71-3.28.32-5.23-.3-.42-1.45-2.17-3.76-4.09.77-.74,2.89-1.59,3.65-1.57.69.03,1.78.77,3.69,3.43,2.32,3.23,2.31,5.88-.03,7.55-1.62,1.16-5.68,2.95-10.98,3.92l-.41-.57c3.27-.85,5.9-2.29,7.52-3.45Z"/>
    <path class="st0" d="M621.65,507.09c-1.47.46-2.43.94-3.57,1.51-.7-2.44-.13-4.51,2.14-6.19,2.03-1.48,5.8-2.93,9.5-3.59l.47.6c-2.94.88-11.06,2.76-8.53,7.66ZM629.46,496.5c.9.28,3.37,2.65,4.43,4.27,1,1.52,2.15,4.5.14,5.52-1.71.87-4.75-.22-5.96-1.74l-3.56,1.86c2.9,1.32,5.28,1.86,8.62,1.16,4.77-1.02,7.97-3.82,3.9-9.63-.37-.51-2.07-2.99-3.76-2.97-1.87.03-3.82,1.52-3.82,1.52Z"/>
    <path class="st0" d="M632.42,509.25c-.26.68.26,2.98,1.35,5.3,1.36-.38,2.96-.88,4.56-1.51,2.51-1,2.03-4.06-.83-5.32.99-.77,2.96-1.83,3.99-1.52,1.04.33,2.74,2.53,2.7,4.07-.07,1.84-2.72,3.73-10.09,4.97,1.64,3.18,4.27,6.13,7.55,5.24,2.7-.73,2.34-5.09-.51-6.32,1.05-.62,2.57-1.31,3.42-1.36,1.53-.1,2.67,1.83,2.76,1.99.2.34,3.41,4.85-7.29,6.76-8.48,1.51-13.62-11.01-12.04-11.56.83-.14,2.02-.28,4.43-.73Z"/>
  </g><g>
    <path class="st0" d="M314.12,857.71c.12-3.41,4.39-4,5.47-5.04,1.59-1.55,1.17-5.12,2.38-7.04.99-1.7,4.88-6.7,8.99-3.14.47.39-1.95-.67-3.93.53-2.35,1.42-2.91,5.73-3.72,8.25-.45,1.41-1.25,2.63-3.83,3.2-3.23.7.25,3.51,2.77,3.62-.5.93-1.37,2.29-2.12,2.85-1.66,1.24-6.08-1.31-6-3.23Z"/>
    <path class="st0" d="M306.53,848.98c.07,0-1.77,3.14-3.32,3.3-2.65.29-5.81-3.51-4.45-5.31,6.04-7.9,9.74-9.36,15.3-6.02,1.22.73,2.65,2.36,2.97,3.37-4.57,3.91-5.24,4.56-6.09,5.75-1.31,1.83-.05,3.44,2.71,3.43-1.2,2-2.2,2.78-2.97,3.02-.65.21-3.67-.96-3.83-2.86-.23-2.68,5.12-6.01,6.3-7.32.42-.46-5.21-6.52-9.37-3.64-3.99,2.77-.5,6.03,2.77,6.29Z"/>
    <path class="st0" d="M291.28,836.35c-.98,1.46-.46,3.67,1.53,5.01.43.29,2.12,1.53,4.95,2.52-.46.97-2.15,2.5-2.87,2.75-.65.22-1.94-.09-4.66-1.92-3.3-2.21-4.23-4.7-2.62-7.09,1.11-1.66,4.28-4.75,8.92-7.52l.58.39c-2.76,1.94-4.72,4.21-5.83,5.87Z"/>
    <path class="st0" d="M281.09,838.68c.39-1.18-.6-1.27-5.17-4.43-4.2-2.89-1.46-6.17-1.1-6.62.37-.44,3.09-3.52,5.55-4.79,5.2-2.75,10.12,2.02,9.59,5.02-.31,1.84-2.9,4.98-5.17,6.58l.5.19c1.63.49-4.55,5.08-4.21,4.05ZM278.2,825.42c-3.92,3.81,2.75,7.43,5.83,8.73,1.07-.79,2.28-1.75,2.68-2.54,2.46-4.74-5.72-8.87-8.5-6.18Z"/>
  </g><g>
    <path class="st0" d="M244.89,784.04l.41.17c2.25.76-3.98,4.44-3.75,3.72.48-1.51-2.37-1.96-5.26-4.3-2.98-2.42-2.78-4.22-1.82-5.5,1.43-1.96,7.63-6.9,10.35-7.7l8.57,6.94c-2.02,1.92-5.81,5.09-8.5,6.67ZM241.94,773.64c-1.04.26-3.8,2.37-4.2,3.83-.61,2.31,3.9,5.01,6.28,6.19,1.91-1.14,3.82-2.59,5.12-4.19-.53-.51-6.14-5.05-7.2-5.83Z"/>
    <path class="st0" d="M230.29,776.92c-1.28-.07-5.03-3.39-3.11-5.63,1.07-1.23,4.26-2.54,6.56-3.35l.43.43c-1.65.69-2.69,1.46-3.2,2.17-1.03,1.45.34,3.44,2.95,4.34-.7.77-2.76,2.09-3.63,2.04Z"/>
    <path class="st0" d="M226.13,765.02c-.48.83-.87,1.98.68,3.68.17.17-3.53.85-4.39.75-.52-.06-1.55-1.69-.75-3.16-2.51-.29-5.07-2.89-5.79-5.11-2.05-6.35,9.2-9,11-8.74,2.91.4,6.29,5.3,6.19,6.73l-3.97,1.69c-.76-3.73-3.96-7.3-7.42-6.31-3.44.97-2.95,4.5-.89,6.86,1.39,1.59,2.86,2.33,4.98,2.27,1.92.02,7.59-2.88,8.58-3.66l.52.72c-4.77,3.36-7.13,3.92-8.74,4.29Z"/>
    <path class="st0" d="M216.36,753.99c-1.14.72-2.96,1.52-3.78,1.43-1.53-.12-3.7-3.54-2.9-5.38.45-1.01,2.76-3.67,13.96-5.1l.37.59s-4.22,1.02-8.27,2.83c-3.43,1.52-1.32,4.27.63,5.63Z"/>
    <path class="st0" d="M210.4,731.49c-3.22,1.92-1.66,5.74-.53,6.87.92.93,1.6.18,5-.12,1.12-.09,3.73-.39,4.59-.39l.32.62s-3.93.46-7.28,2c-4.7,2.19-3.05,4.02-1.17,5.15-1.2.61-3.34,1.22-3.9,1.13-1.03-.2-2.07-1.48-2.45-2.79-.82-2.69,1.45-3.71,2.39-4.36-.54-.65-3.35-.21-3.65-.06-1.88-.86-2.99-2.96-2.61-3.97.24-.67,2.97-1.34,3.93-1.01.29-1.59,1.48-2.91,2.63-3.56,1.31-.74,4.82-1.83,7.49-1.59l.39.76c-2.86.26-4.35.85-5.15,1.32Z"/>
    <path class="st0" d="M209.06,714.38l.41,1.08c-.8-.28-4.63-.87-7.3.14-3.01,1.15-3.77,3.72-2.49,7.08.18.48.45,1,.67,1.41.21.38.37.64.6.98l-.09.03-.77-.91.26-.1c8.49-2.78,11.74-3.11,13.1,1.13.27.81.76,2.68.57,2.69l-4.53.68c.2-.6.08-2.45-.4-3.73-.72-1.88-3.76-1.5-8.13.2,1,1.51,2.17,2.6,2.58,2.9-1.75.67-4.03.88-4.3.76-1.05-.51-2.47-2.09-3.35-4.4-1.64-4.3-.46-7.82,3.53-9.34,2.44-.93,5.87-1.49,9.65-.61Z"/>
    <path class="st0" d="M194.96,694.94c-1.85.46-2.63,2.89-2.04,5.23.54,2.16,1.71,4.29,2.62,5.51-1.08.62-3.62.59-4.11.37-1.1-.48-2.46-3.25-2.96-5.23-.97-3.87-.05-6.65,2.77-7.36,1.96-.49,6.5-.69,11.86.36l.17.68c-3.39-.41-6.34-.05-8.3.45ZM201.08,699.56c1.55.15,2.36.2,3.76.22-.28,2.52-1.91,3.75-2.86,3.99-1.34.34-3.66.16-5.53-.6l-.1-.38c3.08.3,4.71.11,4.72-3.23Z"/>
    <path class="st0" d="M191.34,682.12c-.24.05-.48.12-.63.27-1.19,1-1.35,2.95-1,4.78.32,1.68,1.05,3.25,1.79,3.85.4.33-.83-.28-2.28,0-.6.11-1.27.39-1.86.91-1.87,1.31-2.54-1.54-3.86-1.29-1.06.2-.84,1.83-1.23,1.91-.87.17-1.9-1.47-1.78-2.67.04-.44.3-.74.76-.92,1.75-.67,4.11,1.09,4.32,1.23.21.15.61-.39.74-.7l-.11-.26c-.35-.71-.62-1.5-.79-2.7-.42-3.09.51-5.06,2.68-5.47.57-.11,1.19-.16,1.91-.11,8.92.46,11.57,6.23,12.45,9.23l-4.69-.2c-.61-4.07-4.48-8.22-6.41-7.85Z"/>
    <path class="st0" d="M189.03,679.06c-1.34.2-3.32.18-4.04-.24-1.35-.73-1.94-4.74-.47-6.09.82-.74,4.01-2.22,14.82,1.02l.1.69s-4.27-.79-8.71-.78c-3.75,0-2.95,3.36-1.71,5.4Z"/>
    <path class="st0" d="M197.42,656.63l.11,1.15c-.69-.49-4.23-2.08-7.07-1.82-3.21.3-4.62,2.58-4.28,6.16.05.52.16,1.09.27,1.54.1.42.19.72.32,1.1h-.09s-.5-1.08-.5-1.08l.27-.02c8.93-.41,12.15.14,12.33,4.6.05.85.02,2.79-.17,2.74l-4.55-.55c.35-.52.73-2.34.6-3.7-.19-2-3.22-2.45-7.89-1.98.56,1.72,1.4,3.08,1.72,3.48-1.86.17-4.12-.22-4.35-.42-.87-.77-1.82-2.67-2.06-5.14-.43-4.58,1.65-7.66,5.89-8.06,2.6-.25,6.05.13,9.46,1.99Z"/>
    <path class="st0" d="M196.94,653.62l-4.51-.79-.31-9.14c-1.15-.36-2.7-.82-3.84-1-1.94-.3-2.93,1.26-2.83,4.4.06,1.74.47,3.8.92,4.55,0,0-1.29.07-2.33-.04-1.14-.12-2.01-.51-2.04-.54-.73-.68-.94-3.38-.98-4.54-.12-3.63,1.13-5.62,3.58-5.7,1.9-.07,3.08.41,5.87,1.27.44-.65,1.14-1.62,1.23-1.75.22.02.49.05,4.85.87l.39,12.43Z"/>
  </g><g>
    <path class="st0" d="M193.64,577.63c-1.76.09-3.21,1.83-3.09,4.22.03.52.04,2.61.95,5.47-1.05.2-3.29-.23-3.92-.65-.56-.4-1.08-1.62-1.25-4.88-.2-3.97,1.23-6.19,4.1-6.34,2-.1,6.37.59,11.36,2.64l.03.7c-3.21-1.05-6.19-1.27-8.19-1.16Z"/>
    <path class="st0" d="M190.9,572.77c-1.33-.07-3.25-.47-3.86-1.02-1.16-.97-.95-5,.74-6.03.94-.56,4.32-1.38,14.15,3.89l-.03.7s-3.98-1.6-8.28-2.46c-3.64-.73-3.51,2.7-2.71,4.93Z"/>
    <path class="st0" d="M194.42,550.75c-.73.57-4.1-.04-4.82-1.93-.29-.76-.16-1.73-.06-2.26.64-3.4,3.09-3.15,4.1-2.96,2.83.53,7.63,3.85,9.27,6.07,1.3,1.76,1.66,4.26,1.27,6.29-.36,1.94-1.45,3.61-2.8,4.22-2.23,1.03-4.28-1.33-6.81-1.65-2.98-.38-3.24,1.97-3.25,2.31-.01,1.05.18,1.49.88,2.02-1.41.47-3.68-.57-4.5-1.47-.89-.97-.74-2.45-.21-3.28.77-1.15,2.32-1.01,2.89-.93l.18.03-.18-.03c-.65-.18-2.7-1.07-2.3-3.18.11-.57.44-1.49,1.11-1.95,1.1-.75,3.55-.53,4.9.34.05.04-1.3.68-1.59,2.23-.33,1.72.34,2.62,2.21,3.16,3.42.99,4.81-3.44,5.05-5.02.29-2.04.25-5.87-2.68-6.68-2.08-.58-3.08.62-3.33,1.93-.2,1.07.22,2.26.65,2.75Z"/>
    <path class="st0" d="M199.12,532.42l-.05.44c-.07,2.36-5.34-2.48-4.59-2.47,1.57.01,1.17-2.82,2.56-6.25,1.43-3.54,3.19-3.87,4.68-3.34,2.27.78,8.71,5.21,10.24,7.56l-4.1,10.17c-2.39-1.36-6.48-4.02-8.74-6.1ZM208.11,526.57c-.55-.91-3.33-2.91-4.82-2.86-2.36.09-3.62,5.17-4.05,7.77,1.63,1.47,3.55,2.87,5.43,3.63.33-.65,3.01-7.31,3.44-8.54Z"/>
    <path class="st0" d="M201.36,516.75c-.35-1.22,1.57-5.82,4.28-4.75,1.5.6,3.74,3.17,5.24,5.06l-.27.55c-1.17-1.32-2.23-2.05-3.06-2.29-1.68-.5-3.11,1.43-3.12,4.17-.95-.4-2.84-1.92-3.07-2.74Z"/>
    <path class="st0" d="M205.53,508.62c-.28-1.23,1.85-5.73,4.51-4.53,1.46.68,3.57,3.35,4.98,5.32l-.3.53c-1.1-1.38-2.12-2.16-2.94-2.44-1.65-.58-3.18,1.28-3.32,4.01-.93-.45-2.74-2.05-2.93-2.89Z"/>
    <path class="st0" d="M214.68,501.03l-.13.42c-.53,2.3-4.75-3.48-4.02-3.33,1.53.32,1.71-2.54,3.74-5.63,2.1-3.19,3.9-3.17,5.25-2.35,2.07,1.22,7.52,6.83,8.56,9.44l-6.03,9.17c-2.08-1.8-5.56-5.22-7.37-7.71ZM224.65,497.07c-.36-1-2.7-3.51-4.17-3.75-2.33-.37-4.57,4.36-5.5,6.83,1.31,1.76,2.91,3.51,4.61,4.63.45-.57,4.4-6.57,5.06-7.7Z"/>
    <path class="st0" d="M219.79,486.18c-.12-1.26,2.57-5.45,5.05-3.92,1.36.86,3.12,3.79,4.26,5.92l-.36.48c-.92-1.51-1.83-2.42-2.6-2.8-1.57-.78-3.32.86-3.81,3.56-.86-.56-2.46-2.39-2.54-3.24Z"/>
    <path class="st0" d="M233.64,491.03c-1.04-1.61-2.24-3.79-2.24-3.79,8.49-5.03,4.25-8.32,2.79-9.16-2.59-1.47-5.35-.27-5.73,3.25-2.14-2.03-3.73-3.24-1.4-5.99.8-.95,2.56-2.65,4.89-.85,1.39,1.08,6.81,6.38,6.9,9.45.09,3.03-4.8,7.74-5.21,7.09Z"/>
    <path class="st0" d="M231.87,470.69c-.06-1.63,3.85-5.94,5.49-4.5,1.93,1.7,1.85,3.77,1.65,5.32.36.23,1.95,1.22,2.5,1.83.78.81,2.57,3.96,2.92,5.59l-.42.48c-.88-2.63-5.27-6.21-6.85-6.43-.08,0,.14-1.17.12-1.87,0-1.7-2.7.37-2.8,3.18-1.04-.83-2.56-2.73-2.6-3.61Z"/>
    <path class="st0" d="M254.17,461.08c-2.82-2.41-5.91.29-6.62,1.71-.58,1.16.34,1.56,1.69,4.65.44,1.02,1.54,3.37,1.81,4.18l-.49.5s-1.67-3.54-4.17-6.19c-3.54-3.71-4.73-1.57-5.2.55-.95-.93-2.2-2.74-2.29-3.29-.14-1.03.74-2.41,1.85-3.2,2.27-1.63,3.95.17,4.86.84.44-.71-.85-3.2-1.09-3.44.21-2.04,1.84-3.75,2.91-3.72.71.02,2.2,2.35,2.19,3.36,1.58-.23,3.2.45,4.17,1.32,1.1.99,3.24,3.92,3.85,6.51l-.6.6c-1.15-2.6-2.17-3.81-2.86-4.4Z"/>
    <path class="st0" d="M256.31,452.79c-.86-.41-2.02-.72-3.6.93-.16.18-1.07-3.43-1.02-4.29.03-.51,1.58-1.65,3.08-.96.12-2.5,2.53-5.22,4.68-6.08,6.15-2.48,9.5,8.46,9.35,10.26-.21,2.91-4.84,6.59-6.26,6.6l-1.93-3.8c3.64-1.02,6.97-4.43,5.77-7.79-1.19-3.33-4.64-2.6-6.85-.39-1.48,1.48-2.12,2.99-1.92,5.09.11,1.9,3.34,7.29,4.17,8.22l-.67.56c-3.63-4.48-4.34-6.77-4.8-8.34Z"/>
  </g></g><g id="ring-4" style="transform-box: view-box; transform-origin: 427.77px 630.04px;"><path class="st0" d="M426.11,829.81c-109.79,0-199.12-89.32-199.12-199.11s89.32-199.12,199.12-199.12,199.11,89.32,199.11,199.12-89.32,199.11-199.11,199.11ZM426.11,432.43c-109.32,0-198.26,88.94-198.26,198.26s88.94,198.26,198.26,198.26,198.26-88.94,198.26-198.26-88.94-198.26-198.26-198.26Z"/><polygon points="550.16,571.42 549.91,570.88 607.67,544.71 607.92,545.25" class="st0"/><polygon points="548.54,689.53 548.81,689.00 606.57,717.66 606.31,718.19" class="st0"/><polygon points="460.23,761.27 460.81,761.16 472.14,824.12 471.56,824.26" class="st0"/><polygon points="344.32,739.30 344.76,739.69 303.89,785.89 303.43,785.53" class="st0"/><polygon points="288.62,632.60 288.62,633.19 228.68,632.93 228.67,632.33" class="st0"/><polygon points="340.44,521.12 339.98,521.49 302.61,475.18 303.07,474.81" class="st0"/><polygon points="455.75,494.60 456.33,494.72 469.59,435.37 469.01,435.24" class="st0"/><g>
    <path class="st0" d="M419.94,446.91c-.17-1.87-2.44-3-4.82-2.77-2.2.2-4.47,1.02-5.8,1.73-.44-1.15-.03-3.62.26-4.07.64-1,3.56-1.92,5.58-2.1,3.95-.37,6.54.94,6.81,3.8.19,1.99-.31,6.45-2.15,11.52l-.7.07c.91-3.25,1-6.18.82-8.17ZM414.47,452.2c-.37,1.5-.54,2.27-.78,3.63-2.43-.65-3.39-2.42-3.48-3.38-.13-1.36.39-3.6,1.42-5.31l.39-.04c-.76,2.96-.82,4.58,2.45,5.1Z"/>
    <path class="st0" d="M428.45,445.08c-.33-.89-.96-1.92-3.23-1.82-.24.02,1.61-3.21,2.24-3.8.38-.35,2.28-.09,2.89,1.45,1.82-1.72,5.44-2.01,7.59-1.14,6.15,2.48.97,12.68-.38,13.87-2.17,1.95-8.06,1.39-9.08.41l1.25-4.08c3.33,1.8,8.1,1.64,9.55-1.61,1.46-3.22-1.54-5.09-4.66-5.03-2.09.04-3.6.68-4.91,2.33-1.24,1.44-2.65,7.57-2.7,8.81l-.88-.06c.49-5.75,1.57-7.89,2.32-9.34Z"/>
    <path class="st0" d="M455.63,449.52c.27-1.49-.91-3-4.36-3.68-.92-.17-1.9-.25-2.85-.23-.48,2.66-1.55,5.7-4.63,10.04l-1.02-.18s2.38-3.64,3.48-7.88c.22-.88.3-1.49.3-1.86-.5.06-.95.14-1.33.22-.12-1.22,1-3.85,1.4-4.21.88-.8,3.95-.89,5.95-.54,3.91.7,6.44,2.73,5.94,5.56-.35,1.97-2.02,6.07-5.15,10.47l-.68-.12c1.75-2.89,2.61-5.63,2.96-7.6Z"/>
  </g><g>
    <path class="st0" d="M263.87,692.38l-4.47.67-3.17-8.52c-1.19.02-2.79.07-3.92.26-1.92.33-2.35,2.11-1.26,5.03.6,1.62,1.63,3.44,2.3,4,0,0-1.18.47-2.2.69-1.1.25-2.05.15-2.08.13-.9-.41-1.95-2.9-2.35-3.97-1.26-3.38-.71-5.65,1.56-6.5,1.76-.66,3.02-.58,5.9-.65.2-.75.56-1.89.6-2.03.21-.05.47-.11,4.82-.7l4.29,11.6Z"/>
    <path class="st0" d="M249.14,680.75c-1.25.61-2.98.71-4.27.3-1.74-.68-3.58-6.93-2.02-9.37,1.67-2.62,8.27-2.52,10.09-2.24,5.9.91,6.54,10.39,5.47,10.98-1.66,0-2.65-.1-4.35-.22,1.01-1.92.35-9.42-3.6-9.93-6.38-.82-4.53,7.53-1.32,10.48Z"/>
    <path class="st0" d="M244.88,666.27c-1.32.21-3.28.22-3.99-.19-1.34-.7-1.98-4.68-.54-6.05.8-.74,3.93-2.25,14.65.84l.11.69s-4.23-.73-8.61-.67c-3.7.05-2.86,3.38-1.62,5.39Z"/>
    <path class="st0" d="M244.13,656.42c-1.35.35-3.06.12-4.25-.54-1.58-1-2.17-7.5-.17-9.59,2.15-2.25,8.61-.87,10.34-.24,5.62,2.04,4.41,11.46,3.25,11.84-1.63-.33-2.59-.61-4.22-1.06,1.36-1.69,2.17-9.18-1.61-10.45-6.1-2.04-5.91,6.51-3.33,10.04Z"/>
  </g><g>
    <path class="st0" d="M282.8,515.77c-1.53-1.09-3.87-.1-5.25,1.85-1.28,1.81-2.13,4.06-2.47,5.53-1.16-.41-2.77-2.33-2.92-2.85-.35-1.14.87-3.95,2.04-5.61,2.29-3.24,4.97-4.35,7.32-2.69,1.63,1.15,4.7,4.44,7.35,9.13l-.4.57c-1.87-2.81-4.04-4.79-5.67-5.95ZM283.25,523.36c.89,1.26,1.37,1.9,2.25,2.97-2.08,1.42-4.05,1-4.84.43-1.11-.79-2.47-2.64-3.1-4.53l.23-.32c1.75,2.51,2.95,3.61,5.47,1.45Z"/>
    <path class="st0" d="M290.05,518.31l-2.52-4.05c1.39-.11,2.32-.61,3.03-1.6,1.3-1.84-.11-4.22-.84-5.18-1.57-2.12-3.19-1.97-4.18-.86-.52.59-.71,1.27-.87,2.95-1.97-1.98-2.47-2.74-2.53-3.45-.18-1.94,2.8-4.77,4.27-4.43.94.22,2.34,1.74,3.62,3.68,1.22.63,2.2-.85,4.7,1,4.23,3.13,2.72,8.18,2.71,8.05l-.36.41c-.18-3.32-2.42-5.41-4.35-4.37.79,1.99,1.23,3.87.92,5.1-.51,2.09-3.46,3-3.61,2.76Z"/>
    <path class="st0" d="M291.02,501.9c-.94-.95-2.09-2.53-2.17-3.35-.21-1.5,2.65-4.34,4.6-3.97,1.07.22,4.13,1.88,7.86,12.39l-.49.49s-1.87-3.86-4.47-7.39c-2.2-2.98-4.41-.36-5.32,1.82Z"/>
    <path class="st0" d="M302.71,504.51c-.7-1.79-1.45-4.16-1.45-4.16,9.32-3.26,5.82-7.32,4.54-8.43-2.25-1.95-5.2-1.32-6.26,2.05-1.69-2.42-3.02-3.92-.19-6.16.97-.77,3.04-2.09,4.96.13,1.15,1.33,5.42,7.6,4.9,10.64-.51,2.99-6.23,6.64-6.5,5.92Z"/>
  </g><g>
    <path class="st0" d="M356.12,799.46c-.84,1.68.49,3.83,2.63,4.9,1.98.99,4.34,1.49,5.84,1.6-.23,1.2-1.88,3.09-2.37,3.32-1.07.52-4.04-.26-5.85-1.16-3.55-1.77-5.05-4.25-3.77-6.82.89-1.79,3.67-5.32,7.91-8.65l.62.31c-2.49,2.28-4.12,4.72-5.01,6.5ZM363.56,797.86c1.11-1.07,1.67-1.64,2.59-2.67,1.72,1.84,1.6,3.85,1.17,4.71-.61,1.22-2.24,2.85-4.01,3.75l-.35-.18c2.2-2.11,3.11-3.45.6-5.62Z"/>
    <path class="st0" d="M357.69,791.94c-1.47,1.22-3.49,2.68-3.49,2.68-6.02-7.82-8.77-3.22-9.42-1.66-1.14,2.75.38,5.34,3.91,5.29-1.76,2.37-2.76,4.1-5.77,2.11-1.04-.68-2.94-2.22-1.43-4.75.9-1.51,5.51-7.52,8.54-7.99,2.99-.45,8.25,3.82,7.66,4.31Z"/>
    <path class="st0" d="M348.3,785.77l-3.43,2.94-7.22-5.52c-1,.65-2.32,1.54-3.17,2.3-1.45,1.3-.87,3.04,1.61,4.93,1.37,1.05,3.21,2.04,4.07,2.16,0,0-.75,1.03-1.5,1.76-.8.8-1.65,1.21-1.7,1.22-.98.13-3.19-1.41-4.11-2.11-2.87-2.19-3.61-4.4-2.14-6.33,1.14-1.49,2.25-2.1,4.65-3.69-.23-.75-.53-1.9-.57-2.04.15-.15.34-.35,3.71-3.15l9.8,7.53Z"/>
    <path class="st0" d="M324.15,777.19c-.17.17-.31.37-.35.59-.37,1.49.64,3.16,1.98,4.43,1.23,1.17,2.73,2.01,3.68,2.07.51.03-.83.26-1.83,1.32-.42.44-.78,1.05-.96,1.8-.74,2.14-2.93.23-3.85,1.2-.73.77.4,1.96.12,2.25-.6.64-2.38-.08-2.99-1.12-.22-.38-.19-.77.07-1.18,1.01-1.55,3.92-1.5,4.18-1.51.26,0,.26-.67.19-.99l-.24-.14c-.7-.37-1.37-.84-2.21-1.72-2.14-2.24-2.54-4.37-1.04-5.95.4-.42.86-.81,1.47-1.2,7.42-4.79,12.9-1.68,15.36.23l-3.87,2.55c-2.87-2.92-8.39-4.02-9.72-2.61Z"/>
  </g><g>
    <path class="st0" d="M533,788.65c-.31,1.23-4.27,4.26-6.08,1.97-.99-1.27-1.66-4.62-2.01-7.01l.5-.33c.35,1.73.91,2.89,1.5,3.52,1.21,1.27,3.42.31,4.79-2.06.62.82,1.5,3.08,1.29,3.91Z"/>
    <path class="st0" d="M508.79,786.06l1.01-.56c-.17.82-.22,4.67,1.15,7.13,1.55,2.79,4.18,3.16,7.31,1.43.45-.25.92-.58,1.29-.85.34-.26.58-.46.88-.73l.04.08-.79.89-.13-.24c-3.91-7.92-4.68-11.07-.69-13,.76-.39,2.53-1.12,2.57-.94l1.3,4.34c-.62-.11-2.42.27-3.61.92-1.75.97-.96,3.9,1.32,7.94,1.35-1.2,2.25-2.5,2.49-2.94.9,1.62,1.42,3.82,1.34,4.11-.36,1.1-1.72,2.72-3.86,3.91-4,2.22-7.63,1.56-9.67-2.13-1.25-2.25-2.27-5.53-1.93-9.36Z"/>
    <path class="st0" d="M506.42,787.62l.85,4.44-8.38,3.52c.07,1.18.18,2.78.42,3.9.4,1.9,2.2,2.26,5.08,1.05,1.59-.67,3.36-1.77,3.9-2.46,0,0,.52,1.16.78,2.17.3,1.09.23,2.04.22,2.08-.37.91-2.81,2.07-3.87,2.52-3.32,1.4-5.62.95-6.56-1.29-.73-1.73-.7-2.99-.89-5.87-.76-.17-1.91-.48-2.06-.52-.05-.2-.13-.47-.9-4.79l11.41-4.76Z"/>
    <path class="st0" d="M484.1,806.08c.83.4,1.79,3.69.41,5.17-.56.6-1.47.92-2,1.06-3.32.93-4.19-1.38-4.47-2.37-.78-2.77.06-8.54,1.32-11,1-1.95,3.08-3.38,5.06-3.93,1.9-.53,3.88-.3,5.02.64,1.91,1.54.7,4.43,1.54,6.84.98,2.84,3.21,2.02,3.51,1.88.95-.45,1.25-.82,1.42-1.69,1.05,1.06,1.12,3.56.68,4.69-.47,1.23-1.87,1.75-2.85,1.65-1.37-.18-1.93-1.63-2.12-2.18l-.05-.17.05.17c.12.66.24,2.89-1.83,3.47-.55.15-1.53.27-2.24-.13-1.16-.65-2.05-2.95-1.87-4.54.01-.07,1.19.87,2.7.44,1.69-.47,2.2-1.47,1.85-3.38-.63-3.5-5.22-2.79-6.74-2.3-1.96.64-5.37,2.38-4.79,5.37.4,2.12,1.92,2.48,3.2,2.12,1.05-.3,1.93-1.2,2.17-1.8Z"/>
  </g><g>
    <path class="st0" d="M596.58,664.92c-1.34-.77-2.35-1.14-3.55-1.59,1.32-2.17,3.22-3.18,5.99-2.65,2.47.48,6.1,2.25,9.1,4.51l-.12.75c-2.65-1.56-9.56-6.22-11.43-1.03ZM609.66,663.42c.42.85.36,4.27-.1,6.16-.43,1.77-1.83,4.64-3.95,3.87-1.8-.66-3.07-3.63-2.79-5.56l-3.79-1.34c1,3.03,2.23,5.14,5.03,7.11,4,2.79,8.23,3.24,9.72-3.7.12-.62.78-3.55-.39-4.78-1.29-1.35-3.72-1.76-3.72-1.76Z"/>
    <path class="st0" d="M601.71,684.56c1.88.66,2.82,1.09,3.98-2.2.34-.97.99-2.83.99-5.02.65.07,3.68,1.23,3.71,2.97.02,1.42-1.81,8.74-3.98,9.52-1.45.55-3.52-1.68-3.41-1.71l.18-.97c-3.05-1.84-6.59-4.27-8.79-6.87l.23-.66c4.01,3.3,4.52,3.77,7.1,4.93Z"/>
    <path class="st0" d="M597.13,688.1c-4.12,2.95-6.47,7.91-2.99,9.48,5.27,2.4,8.2-3.25,6.59-6.52,1.44.45,2.45.79,4,1.56.69.79.07,6.75-4.32,6.99l-.31.02c-1.18-.02-2.35-.12-3.31-.3h-.02s2.3-.49,2.3-.49c.57.15.99.39,1.34.77,1.75,1.86.67,6.03-2.21,6.92-.96-.18-2.42-.98-4.08-2.28,1.91.79,4.62-2.8,2.67-4.93-7.99-1.43-9.52-7.85-3.1-14.36.58.46,1.69,1.63,3.44,3.15Z"/>
  </g><g>
    <path class="st0" d="M545.24,490.1l-.4-.19c-2.19-.87,4.16-4.17,3.9-3.47-.55,1.47,2.25,2.07,5,4.54,2.84,2.55,2.55,4.33,1.54,5.54-1.51,1.86-7.88,6.4-10.62,7.04l-8.16-7.34c2.1-1.78,6-4.72,8.73-6.13ZM547.65,500.55c1.04-.2,3.88-2.14,4.34-3.55.72-2.25-3.62-5.17-5.92-6.47-1.94,1.02-3.91,2.35-5.27,3.86.5.53,5.84,5.33,6.85,6.16Z"/>
    <path class="st0" d="M559.23,497.58c1.26.1,4.93,3.46,3,5.64-1.08,1.2-4.25,2.43-6.54,3.19l-.42-.44c1.64-.65,2.69-1.4,3.2-2.09,1.04-1.41-.29-3.41-2.86-4.35.7-.75,2.77-2.02,3.62-1.95Z"/>
    <path class="st0" d="M565.7,514.48c1.55-1.27,2.4-1.85.19-4.55-.65-.8-1.91-2.32-3.78-3.45.4-.52,2.96-2.51,4.47-1.63,1.22.72,6.53,6.09,6.08,8.35-.28,1.52-3.27,2.13-3.24,2.03l-.73-.65c-3.15,1.65-7.08,3.42-10.45,3.95l-.44-.54c4.91-1.71,5.57-1.91,7.9-3.51Z"/>
    <path class="st0" d="M573.12,530.98c2.97-2.22,1.02-5.83-.22-6.84-1.01-.82-1.6,0-4.91.63-1.1.21-3.62.77-4.47.85l-.38-.59s3.82-.86,6.95-2.71c4.39-2.65,2.57-4.28.6-5.2,1.12-.73,3.15-1.55,3.72-1.52,1.03.09,2.19,1.25,2.71,2.5,1.1,2.58-1.02,3.81-1.88,4.55.6.59,3.32-.13,3.6-.31,1.94.65,3.26,2.62,3,3.66-.17.69-2.78,1.62-3.76,1.4-.12,1.6-1.14,3.02-2.2,3.78-1.21.86-4.54,2.3-7.2,2.34l-.46-.71c2.79-.55,4.19-1.28,4.92-1.83Z"/>
    <path class="st0" d="M580.69,535.42c.64-.7,1.27-1.72.15-3.71-.13-.21,3.59-.03,4.4.27.48.18,1.12,1.99.03,3.23,2.36.84,4.26,3.94,4.46,6.25.59,6.6-10.85,6.63-12.53,5.97-2.72-1.04-4.9-6.54-4.49-7.9l4.2-.74c-.09,3.78,2.21,7.96,5.77,7.78,3.53-.17,3.84-3.68,2.36-6.43-.99-1.85-2.24-2.9-4.3-3.32-1.84-.45-7.95,1.08-9.07,1.6l-.34-.81c5.34-2.17,7.74-2.18,9.38-2.17Z"/>
  </g></g><g id="ring-5" style="transform-box: view-box; transform-origin: 427.77px 630.04px;"><path class="st0" d="M426.11,766.26c-75.87,0-137.59-61.72-137.59-137.59,0-42.89,19.48-82.58,53.44-108.87,24.28-18.79,53.37-28.72,84.15-28.72,75.87,0,137.59,61.72,137.59,137.59s-61.72,137.59-137.59,137.59ZM426.11,491.67c-30.64,0-59.61,9.89-83.79,28.6-33.82,26.18-53.21,65.69-53.21,108.4,0,75.54,61.46,137,137,137s137-61.46,137-137-61.46-137-137-137Z"/><g>
    <path class="st0" d="M417.05,505.92c-.21-1.5-1.8-2.57-5.29-2.15-.93.13-1.88.35-2.78.66.37,2.67.29,5.9-1.3,10.98l-1.02.14s1.13-4.2.87-8.57c-.07-.91-.18-1.51-.29-1.86-.46.22-.86.42-1.2.62-.49-1.13-.24-3.98.03-4.44.59-1.03,3.48-2.07,5.49-2.35,3.93-.54,6.97.6,7.37,3.45.27,1.98-.04,6.4-1.65,11.55l-.69.1c.77-3.29.74-6.16.47-8.14Z"/>
    <path class="st0" d="M423.38,497.85c2.06-3.24,6.92.45,2.25,5.06-.38.37-1.86,1.78-3.32,2.66l-.85-1.13c1.42-1.13,4.42-3.54,1.92-6.59ZM429.56,497.69c2.07-3.24,6.92.45,2.25,5.06-.38.37-1.86,1.78-3.32,2.66l-.85-1.13c1.42-1.13,4.42-3.54,1.92-6.59Z"/>
    <path class="st0" d="M448.56,509.51c.13-3.7-3.9-4.45-5.46-4.12-1.27.27-1.01,1.24-2.59,4.22-.53.98-1.68,3.3-2.15,4.01l-.7-.07s1.73-3.51,2.25-7.11c.7-5.07-1.72-4.68-3.67-3.72.13-1.33.78-3.42,1.15-3.85.72-.75,2.35-.92,3.65-.54,2.7.76,2.33,3.19,2.36,4.32.84-.1,1.98-2.66,2.01-2.99,1.73-1.1,4.08-.89,4.73-.04.43.56-.47,3.18-1.27,3.8,1.17,1.1,1.63,2.79,1.56,4.09-.09,1.48-1.06,4.98-2.7,7.07l-.85-.09c1.32-2.52,1.64-4.07,1.67-4.98Z"/>
  </g><g>
    <path class="st0" d="M493.98,524.29l-.41-.16c-2.27-.65,3.73-4.55,3.53-3.83-.4,1.51,2.45,1.84,5.42,4.03,3.07,2.26,2.96,4.06,2.07,5.36-1.32,2-7.22,7.14-9.88,8.04l-8.83-6.51c1.91-1.98,5.51-5.28,8.09-6.94ZM497.41,534.46c1.02-.31,3.65-2.51,3.97-3.96.5-2.31-4.11-4.8-6.52-5.86-1.83,1.21-3.66,2.72-4.87,4.36.55.48,6.33,4.74,7.42,5.46Z"/>
    <path class="st0" d="M511.38,531.43c3.74-.86,4.63,5.18-1.94,5.2-.54,0-2.58-.04-4.24-.43l.19-1.4c1.81.19,5.64.57,5.99-3.37ZM515.9,535.64c3.75-.87,4.63,5.17-1.94,5.2-.54,0-2.57-.04-4.24-.43l.18-1.4c1.81.19,5.64.57,5.99-3.37Z"/>
    <path class="st0" d="M512.38,546.22c-.15.72.75,2.9,2.2,5,1.28-.6,2.78-1.36,4.25-2.25,2.31-1.4,1.33-4.34-1.7-5.11.85-.92,2.62-2.29,3.69-2.16,1.08.15,3.12,2.05,3.33,3.57.23,1.83-2.07,4.13-9.13,6.57,2.15,2.87,5.22,5.34,8.31,3.92,2.55-1.16,1.46-5.4-1.55-6.15.92-.78,2.31-1.72,3.15-1.9,1.49-.35,2.94,1.36,3.06,1.5.25.3,4.16,4.22-6.08,7.87-8.11,2.89-15.24-8.61-13.78-9.41.8-.28,1.95-.61,4.25-1.45Z"/>
    <path class="st0" d="M531.89,563.61c-.06-.04,3-2,4.46-1.45,2.49.94,3.59,5.76,1.56,6.75-8.96,4.31-12.92,3.95-16.38-1.55-.76-1.2-1.29-3.31-1.12-4.35,5.84-1.42,6.74-1.7,8.04-2.37,2-1.04,1.6-3.04-.87-4.29,1.98-1.24,3.22-1.49,4.02-1.35.68.11,2.84,2.52,2.13,4.29-1.01,2.5-7.29,3.05-8.93,3.69-.58.22,1.7,8.17,6.72,7.48,4.81-.66,3.17-5.15.37-6.86Z"/>
  </g><g>
    <path class="st0" d="M552.38,625.92c1.99-1.12,1.94-4.55-.33-6.08,1.39-.48,2.77-.69,4.24-.38,1.97,1.3,1.47,7.75-1.87,7.77,3.92.54,2.77,6.35,1.19,7.19-.96-.23-2.46-.54-4.16-1.34,1.27-.58,2.4-2.77,1.4-4.85-1.72-3.57-6.52-.02-11.07-.11-1.97,0-7.78-1.02-7.27-6.19.06-.6.42,2.02,2.47,3.15,2.4,1.29,6.42-.4,9-.98,2.66-.55,5.13,2.57,6.41,1.84Z"/>
    <path class="st0" d="M555.33,645.09c2.81,2.62-1.69,6.73-5.39,1.31-.3-.45-1.41-2.15-2.02-3.75l1.26-.63c.85,1.6,2.69,4.99,6.14,3.07ZM556.28,638.98c2.81,2.61-1.69,6.73-5.39,1.31-.3-.45-1.41-2.15-2.02-3.75l1.26-.63c.85,1.6,2.69,4.99,6.15,3.07Z"/>
    <path class="st0" d="M544.77,658.18c1.93.52,2.91.87,3.8-2.5.26-1,.77-2.9.6-5.08.65.02,3.77.94,3.93,2.68.12,1.41-1.14,8.86-3.24,9.8-1.4.66-3.64-1.41-3.54-1.45l.1-.97c-3.18-1.6-6.9-3.75-9.3-6.18l.18-.67c4.25,2.99,4.8,3.41,7.46,4.37Z"/>
    <path class="st0" d="M531.36,664.43c-1.22-.95-2.16-1.45-3.29-2.07,1.61-1.97,3.63-2.69,6.3-1.78,2.38.82,5.72,3.08,8.37,5.74l-.22.72c-2.4-1.91-8.59-7.49-11.17-2.61ZM544.52,664.77c.29.9-.25,4.28-.97,6.08-.68,1.69-2.46,4.34-4.45,3.28-1.7-.91-2.54-4.02-1.98-5.89l-3.57-1.85c.57,3.14,1.49,5.4,3.99,7.74,3.57,3.32,7.69,4.36,10.14-2.31.21-.6,1.27-3.41.28-4.78-1.09-1.52-3.44-2.26-3.44-2.26Z"/>
  </g><g>
    <path class="st0" d="M322.41,698.14c-1.82.98-2.77,1.27-3.76,1.44-1.6.29-6.13-6.04-5.33-9.14.31-1.25,2.99-1.79,4.92-1.99,2.36-.25,4.47-4.62,7.15-6.22,3.92-2.35,7.38-1.77,9.18,1.18-3.7-2.24-6.59-1.04-9.07,2.49-1.82,2.57-2.7,3.35-6.22,3.41-2.37.05-1.92,3.05.56,6.2.63.82,1.62,2.24,2.57,2.63Z"/>
    <path class="st0" d="M305.84,678.52c-3.79-.63-2.3-6.55,3.77-4.06.5.2,2.37,1.01,3.76,2.01l-.71,1.22c-1.6-.87-5-2.68-6.82.83ZM308.41,684.14c-3.79-.63-2.3-6.55,3.77-4.07.5.21,2.37,1.02,3.76,2.02l-.71,1.22c-1.6-.87-5-2.68-6.82.83Z"/>
    <path class="st0" d="M318.57,669.3l-4.49.5-2.86-8.63c-1.19-.02-2.79-.03-3.92.12-1.92.25-2.42,2.01-1.44,4.98.55,1.64,1.51,3.49,2.15,4.08,0,0-1.2.43-2.22.61-1.11.21-2.05.07-2.09.05-.88-.45-1.84-2.96-2.2-4.05-1.14-3.42-.51-5.67,1.79-6.44,1.78-.59,3.04-.46,5.92-.43.23-.75.62-1.87.67-2.01.21-.04.48-.1,4.84-.52l3.86,11.74Z"/>
    <path class="st0" d="M311.64,642.51l.21,1.13c-.72-.42-4.35-1.69-7.12-1.17-3.13.58-4.32,2.96-3.66,6.48.1.51.26,1.06.4,1.5.14.41.25.7.41,1.06l-.09.02-.59-1.03.27-.05c8.74-1.2,11.97-.93,12.54,3.46.12.84.27,2.75.07,2.73l-4.53-.15c.3-.55.51-2.38.26-3.71-.37-1.97-3.39-2.15-7.94-1.27.71,1.66,1.65,2.93,2,3.3-1.82.34-4.07.15-4.32-.03-.93-.69-2.03-2.49-2.48-4.9-.84-4.5.93-7.72,5.07-8.5,2.53-.47,5.97-.4,9.49,1.13Z"/>
  </g><g>
    <path class="st0" d="M389.88,741.89c-.07.23-.12.47-.06.68.32,1.5,1.96,2.56,3.72,3.12,1.62.51,3.34.61,4.21.25.48-.2-.63.59-1.07,1.98-.18.58-.25,1.29-.07,2.04.27,2.25-2.54,1.49-2.94,2.76-.32,1.01,1.21,1.59,1.1,1.97-.27.84-2.18.96-3.18.3-.37-.24-.51-.6-.45-1.1.23-1.83,2.87-3.06,3.1-3.18.23-.12-.06-.72-.26-.97l-.28-.02c-.79-.02-1.6-.16-2.74-.58-2.9-1.08-4.19-2.82-3.54-4.9.17-.55.42-1.11.8-1.72,4.58-7.55,10.87-7.14,13.91-6.5l-2.37,3.98c-3.85-1.38-9.29.05-9.88,1.9Z"/>
    <path class="st0" d="M375.51,743.28c-3.23,2.07-6.1-3.31.07-5.54.5-.18,2.43-.83,4.13-1.03l.3,1.38c-1.77.43-5.5,1.36-4.5,5.19ZM381.19,745.72c-3.23,2.07-6.1-3.31.07-5.54.5-.18,2.43-.83,4.13-1.03l.3,1.38c-1.77.43-5.5,1.36-4.5,5.19Z"/>
    <path class="st0" d="M368.15,739.92c.25-1.22-.75-1.2-5.65-3.81-4.51-2.38-2.17-5.97-1.85-6.45s2.67-3.85,4.96-5.4c4.85-3.33,10.29.84,10.11,3.89-.09,1.87-2.3,5.28-4.38,7.13l.52.13c1.68.3-3.94,5.57-3.71,4.51ZM363.75,727.08c-3.45,4.24,3.6,7.07,6.8,8,.97-.91,2.06-2,2.37-2.84,1.89-5-6.71-8.16-9.17-5.16Z"/>
  </g><g>
    <path class="st0" d="M502.13,721.35c.92-.02,3.24,2.51,2.67,4.45-.24.78-.91,1.48-1.32,1.84-2.57,2.32-4.37.64-5.06-.13-1.93-2.14-3.75-7.69-3.72-10.45.03-2.19,1.25-4.4,2.79-5.78,1.46-1.32,3.34-2,4.79-1.66,2.4.53,2.6,3.65,4.42,5.44,2.15,2.1,3.78.38,3.99.12.65-.83.75-1.29.52-2.14,1.41.48,2.59,2.69,2.7,3.9.12,1.32-.9,2.4-1.81,2.74-1.31.45-2.46-.6-2.87-1l-.12-.14.12.14c.4.53,1.5,2.48-.1,3.92-.43.39-1.25.92-2.06.88-1.33-.07-3.15-1.73-3.7-3.24-.02-.07,1.45.25,2.62-.81,1.31-1.17,1.32-2.29.15-3.85-2.13-2.86-5.91-.17-7.07.95-1.47,1.45-3.75,4.53-1.9,6.94,1.31,1.72,2.83,1.37,3.82.47.81-.73,1.2-1.94,1.14-2.58Z"/>
    <path class="st0" d="M491.26,736.68c.03,3.84-6.05,3.39-4.65-3.02.12-.52.6-2.5,1.34-4.05l1.33.49c-.58,1.72-1.78,5.38,1.98,6.58ZM496.35,733.19c.03,3.84-6.05,3.38-4.65-3.02.12-.52.6-2.5,1.34-4.04l1.33.49c-.58,1.72-1.78,5.38,1.98,6.58Z"/>
    <path class="st0" d="M475.25,738.37c.11.21.25.41.45.52,1.3.81,3.2.37,4.82-.51,1.49-.81,2.76-1.97,3.11-2.85.19-.48-.01.87.68,2.15.29.53.75,1.07,1.42,1.47,1.81,1.37-.69,2.86-.06,4.03.51.93,1.99.23,2.17.58.42.77-.82,2.24-1.99,2.49-.43.09-.79-.06-1.1-.44-1.16-1.44-.2-4.2-.13-4.44.07-.25-.56-.46-.88-.48l-.21.18c-.56.55-1.23,1.04-2.32,1.57-2.79,1.34-4.94,1.06-5.98-.86-.27-.5-.51-1.07-.68-1.77-2.24-8.54,2.42-12.79,4.99-14.52l1.22,4.47c-3.67,1.82-6.42,6.72-5.5,8.42Z"/>
    <path class="st0" d="M471.03,731.25l.52,4.74c-1.3-.5-2.36-.45-3.43.13-1.97,1.1-1.73,3.85-1.5,5.04.5,2.59,2.02,3.16,3.39,2.58.72-.3,1.2-.83,2.06-2.28.92,2.64,1.03,3.54.78,4.2-.67,1.83-4.59,3.09-5.77,2.14-.75-.61-1.35-2.59-1.66-4.89-.82-1.1-2.35-.19-3.8-2.94-2.45-4.65,1.1-8.55,1.05-8.43l.5-.21c-1.27,3.07-.17,5.92,2.02,5.82.15-2.13.57-4.02,1.38-4.99,1.37-1.66,4.43-1.21,4.45-.92Z"/>
  </g><g>
    <path class="st0" d="M309.38,577.69c3.4-.25,4.45,3.93,5.6,4.89,1.71,1.42,5.21.61,7.26,1.61,1.8.8,7.19,4.12,4.1,8.59-.34.52.45-2-.95-3.85-1.66-2.18-6.01-2.27-8.6-2.8-1.45-.29-2.75-.95-3.6-3.45-1.05-3.14-3.46.62-3.3,3.14-.98-.4-2.42-1.12-3.06-1.8-1.41-1.52.64-6.18,2.56-6.32Z"/>
    <path class="st0" d="M309.96,572.96c-1.86-3.36,3.7-5.87,5.53.43.15.51.67,2.48.75,4.19l-1.4.21c-.31-1.79-1.01-5.58-4.89-4.83ZM312.76,567.44c-1.86-3.36,3.7-5.87,5.53.43.15.52.67,2.49.76,4.2l-1.4.21c-.31-1.79-1-5.58-4.89-4.83Z"/>
    <path class="st0" d="M322.78,562.09c-.93-.19-2.14-.2-3.26,1.78-.11.22-1.87-3.07-2.03-3.91-.1-.51,1.13-1.98,2.76-1.68-.49-2.46,1.18-5.68,3.06-7.04,5.37-3.91,11.28,5.9,11.57,7.68.51,2.87-3.09,7.57-4.47,7.92l-2.8-3.22c3.29-1.87,5.69-6,3.7-8.96-1.96-2.94-5.14-1.4-6.74,1.29-1.08,1.8-1.33,3.42-.63,5.4.57,1.81,5.02,6.27,6.05,6.97l-.52.71c-4.61-3.46-5.85-5.52-6.69-6.93Z"/>
    <path class="st0" d="M339.63,540.15c-.92.1-3.44-2.22-3.03-4.21.17-.8.78-1.55,1.16-1.95,2.36-2.52,4.3-1,5.05-.3,2.1,1.97,4.38,7.33,4.58,10.09.16,2.18-.88,4.49-2.28,5.99-1.35,1.44-3.16,2.27-4.62,2.06-2.43-.32-2.9-3.42-4.86-5.05-2.32-1.92-3.8-.07-3.98.22-.57.87-.64,1.35-.34,2.17-1.45-.36-2.8-2.46-3.02-3.65-.24-1.3.69-2.47,1.57-2.88,1.27-.56,2.5.39,2.94.76l.13.12-.13-.12c-.45-.5-1.71-2.34-.24-3.91.39-.42,1.17-1.02,1.98-1.05,1.33-.04,3.29,1.45,3.96,2.91.02.06-1.46-.12-2.54,1.03-1.2,1.28-1.12,2.4.17,3.85,2.36,2.66,5.9-.33,6.96-1.54,1.34-1.57,3.35-4.83,1.3-7.07-1.45-1.6-2.93-1.12-3.84-.15-.75.8-1.02,2.03-.92,2.67Z"/>
  </g></g></svg>